<svg xmlns="http://www.w3.org/2000/svg" preserveAspectRatio="none" viewBox="0 0 14 16" width="14" height="16"><path d="M9.55 8.98c-.17-.03-.42-.03-.72 0 .2.13.48.28.79.28.36.01.33-.22-.07-.28zm-3.3-.12c.28-.09.9-.24 1.06-.27-.02-.02-.46-.48-.61-.73-.12.29-.44.99-.45 1zm-2.01 1.66c-.26.28-.09.51.23.2.15-.15.34-.43.47-.69-.22.11-.53.3-.7.49zm2.4-4.21c-.09-.26-.17-.67-.12-.93.06-.28.24-.27.29-.02.05.24-.08.74-.17.95zm3 2.05c-.46-.07-1.11.01-1.57.08-.34-.28-.76-.71-1.08-1.28.22-.58.36-1.03.42-1.35.31-1.68-1.73-1.81-1.51-.01.06.48.2.95.41 1.39-.25.62-.57 1.32-.89 1.95-.71.27-1.23.55-1.53.84-1.06 1 .26 2.33 1.26.89.24-.35.51-.84.71-1.23.63-.22 1.36-.41 2.04-.54.44.34 1.16.79 1.72.79 1.09 0 1.24-1.35.02-1.53zm-8.39 6.39v-13.5h11.5v13.5h-11.5zm.4-14.75c-.91 0-1.65.74-1.65 1.65v12.7c0 .91.74 1.65 1.65 1.65h10.7c.91 0 1.65-.74 1.65-1.65v-12.7c0-.91-.74-1.65-1.65-1.65h-10.7z" clip-rule="evenodd" fill="#c00" fill-rule="evenodd"/></svg>