<?xml version="1.0" encoding="utf-8"?>
<!-- Generator: Adobe Illustrator 23.0.0, SVG Export Plug-In . SVG Version: 6.00 Build 0)  -->
<svg version="1.1" id="_x31_" xmlns="http://www.w3.org/2000/svg" xmlns:xlink="http://www.w3.org/1999/xlink" x="0px" y="0px"
	 viewBox="0 0 80 80" style="enable-background:new 0 0 80 80;" xml:space="preserve">
<style type="text/css">
	svg{fill:#d1181b;}
</style>
<path d="M51.18,67.22v-7.57h-9.36v7.57h-3.63v-7.57h-9.35v7.57H25.2v-7.57h-7.91v-3.63h7.91V49.5h-7.91v-3.63h7.91v-6.51h-7.91
	v-3.63h7.91v-7.57h3.63v7.57h9.35v-7.57h3.63v7.57h9.36v-7.57h3.64v7.57h7.9v3.63h-7.9v6.51h7.9v3.63h-7.9v6.51h7.9v3.63h-7.9v7.57
	H51.18z M51.18,56.01V49.5h-9.36v6.51H51.18z M38.18,56.01V49.5h-9.35v6.51H38.18z M51.18,45.87v-6.51h-9.36v6.51H51.18z
	 M38.18,45.87v-6.51h-9.35v6.51H38.18z"/>
<path d="M72.51,5.09H71.8h-8.45c-0.02,0-0.04-0.02-0.04-0.04C63.2,2.25,60.89,0,57.97,0c-2.86,0-5.19,2.3-5.26,5.15
	c0,0.02-0.02,0.04-0.04,0.04h-7.32c-0.02,0-0.04-0.02-0.04-0.04C45.24,2.3,42.91,0,39.96,0c-2.86,0-5.2,2.3-5.27,5.15
	c0,0.02-0.02,0.04-0.04,0.04H27.3c-0.02,0-0.04-0.02-0.04-0.04C27.19,2.3,24.85,0,21.89,0c-2.83,0-5.14,2.25-5.25,5.06
	c0,0.02-0.02,0.04-0.04,0.04H7.56H7.43c-2.05,0-4.03,0.87-5.44,2.39C0.7,8.86,0,10.65,0,12.55v1.09v57.94v0.96
	C0,76.66,3.34,80,7.47,80h0.96h63.13h1c2.27,0,4.39-1.02,5.81-2.79c1.07-1.36,1.63-2.97,1.63-4.64v-1V13.64v-1.05
	C80,8.47,76.63,5.09,72.51,5.09z M55.76,5.32c0-1.25,1.01-2.26,2.26-2.26c1.24,0,2.25,1.01,2.25,2.25v15.27
	c0,0.02-0.02,0.04-0.04,0.04H55.8c-0.02,0-0.04-0.02-0.04-0.04V5.32z M37.74,5.32c0-1.25,1.01-2.26,2.26-2.26h0.01
	c1.24,0,2.25,1.01,2.25,2.25v15.27c0,0.02-0.02,0.04-0.04,0.04h-4.44c-0.02,0-0.04-0.02-0.04-0.04V5.32z M19.69,5.32
	c0-1.29,1.01-2.26,2.26-2.26h0c1.25,0,2.26,1.01,2.26,2.26v15.26c0,0.02-0.02,0.04-0.04,0.04h-4.44c-0.02,0-0.04-0.02-0.04-1.77
	V5.32z M73.87,69.71c0,2.3-1.87,4.17-4.17,4.17H10.3C8,73.88,6.12,72,6.12,69.7V15.4c0-2.31,1.87-4.18,4.18-4.18h0.96h7.07
	c0.02,0,0.04,0.02,0.04,0.04v4.84h-0.99v8.39c0,0.02,0.02,0.04,0.04,0.04h9.03h0.03h0.03V16.1h-0.99v-4.84
	c0-0.02,0.02-0.04,0.04-0.04h10.82c0.02,0,0.04,0.02,0.04,0.04v4.84h-0.99v8.39c0,0.02,0.02,0.04,0.04,0.04h9.03h0.03h0.03V16.1
	h-0.99v-4.84c0-0.02,0.02-0.04,0.04-0.04H54.4c0.02,0,0.04,0.02,0.04,0.04v4.84h-1v8.39c0,0.02,0.02,0.04,0.04,0.04h9.03h0.03h0.02
	V16.1h-0.98v-4.84c0-0.02,0.02-0.04,0.04-0.04h8.1h1c1.43,0,3.14,0.72,3.14,4.14V69.71z"/>
<polygon points="24.2,10.11 24.2,20.62 19.69,20.62 19.69,10.11 17.77,10.11 17.77,15.5 16.78,15.5 16.78,24.49 16.82,25.13
	27.11,25.13 27.11,15.5 26.12,15.5 26.12,10.11 "/>
<polygon points="42.26,10.11 42.26,20.62 37.74,20.62 37.74,10.11 35.82,10.11 35.82,15.5 34.84,15.5 34.84,24.49 34.88,25.13
	45.16,25.13 45.16,15.5 44.18,15.5 44.18,10.11 "/>
<polygon points="60.27,10.11 60.27,20.62 55.75,20.62 55.75,10.11 53.83,10.11 53.83,15.5 52.85,15.5 52.85,24.49 52.89,25.13
	63.17,25.13 63.17,15.5 62.19,15.5 62.19,10.11 "/>
</svg>
