<svg viewBox="0 0 120 124" xmlns="http://www.w3.org/2000/svg"><path d="m120 49.57a19.75 19.75 0 0 0 -5.76-14 19.62 19.62 0 0 0 -27.83 0 33.92 33.92 0 0 1 -24.18 10.1 3.84 3.84 0 1 0 0 7.67 41.47 41.47 0 0 0 29.47-12.2 12.35 12.35 0 0 1 8.71-3.7 12 12 0 0 1 9.11 4.23 12.12 12.12 0 0 1 2.76 6.33 12.36 12.36 0 0 1 -.47 5.33 42.18 42.18 0 0 0 -47.56 19.8l-3.5 6.09a25.52 25.52 0 0 1 -4.58 5.83 11.38 11.38 0 0 1 -8.09 3.37s-3.29.31-4.25-2a13 13 0 0 0 -7.54-6.41 16.09 16.09 0 0 0 -9.56-7.4 1 1 0 0 0 -1.19.92 24.92 24.92 0 0 0 .87 7.47 13.54 13.54 0 0 0 -5.9 5.67 6.23 6.23 0 0 0 -.67 2.33 5.77 5.77 0 0 0 0 1.1v3.61a7.73 7.73 0 0 0 -2.36 3.38v.1a.2.2 0 0 0 0 .07.06.06 0 0 0 0 0v.06s0 0 0 0 0 0 0 .06a.13.13 0 0 0 0 .06.15.15 0 0 1 0 .07.14.14 0 0 1 0 .06v.06a.16.16 0 0 0 0 .07v.06l.05.06s0 0 .05 0a.1.1 0 0 0 .05 0h.06.08.1l.7.25a6.06 6.06 0 0 0 7.3 3h.07a5.78 5.78 0 0 1 2.06 2.93 2.54 2.54 0 0 1 -1 3.17l-18.6 11a8.42 8.42 0 0 1 -4.29 1.18h-2.11a2.27 2.27 0 0 0 .24 4.52h3.38a5.66 5.66 0 0 0 1.47-.2l36.75-10a7.55 7.55 0 0 1 2.46-.25c1.4.08 2.81.13 4.23.13a69.22 69.22 0 0 0 40.26-12.85 2.53 2.53 0 0 1 3.66.78l2.71 4.61a5.18 5.18 0 0 1 .52 4l-1.47 5.24a3.5 3.5 0 0 1 -3.36 2.57 3.09 3.09 0 0 0 -3.12 3 3.05 3.05 0 0 0 3 3.17h3.27a7.61 7.61 0 0 0 6.79-4.19l5.77-11.38a12.42 12.42 0 0 0 .15-10.78 15.27 15.27 0 0 1 3.06-17c.18-.18.36-.36.53-.55a21.81 21.81 0 0 0 5.88-14.92 22.22 22.22 0 0 0 -.76-5.75 19.8 19.8 0 0 0 2.58-9.93z" fill="#eee"/></svg>