<svg xmlns="http://www.w3.org/2000/svg" width="77.124" height="69.03"><path d="M33.03 14.1c.133 7.49-2.763 10.43-7.042 10.42s-6.946-4.21-6.963-10.56C19.005 6.47 22.007.07 26.285.08s6.613 6.54 6.745 14.02zM14.017 32.52c.773 7.44-1.759 10.3-5.981 11-3.775.63-7.588-3.49-7.982-9.9-.459-7.48 1.994-13.79 6.257-14.16s6.933 5.61 7.706 13.06zm63.012 1.63c-.555 7.07-4.162 10.23-8.051 9.75-4.242-.52-6.688-3.67-5.891-11.13s3.668-13.44 7.93-13.05 6.595 6.97 6.012 14.43zM58.251 14.02c.03 6.7-2.764 10.43-7.042 10.42s-7.118-3.06-6.964-10.56S46.804-.01 51.082.01s7.136 6.52 7.169 14.01zm-4.417 36.36a22.037 22.037 0 0 1-2.728-2.33c-4.113-4.62-3.926-9.96-12.559-9.87-8.633-.04-9.826 6.7-12.479 9.95a20.127 20.127 0 0 1-2.709 2.35c-4.9 3.91-8.8 8.58-6.076 13.67a8.809 8.809 0 0 0 13.081 3.18A14.686 14.686 0 0 1 38.649 65l.007-.01.006.01a14.682 14.682 0 0 1 8.3 2.28 8.8 8.8 0 0 0 13.055-3.26c2.685-5.11-1.253-9.76-6.183-13.64z" fill-rule="evenodd"/></svg>