<svg xmlns="http://www.w3.org/2000/svg" xmlns:xlink="http://www.w3.org/1999/xlink" preserveAspectRatio="xMidYMid" width="54" height="2" viewBox="0 0 54 2">
  <defs>
    <style>
      .cls-1 {
        fill: #000;
        opacity: 0.6;
        fill-rule: evenodd;
      }
    </style>
  </defs>
  <path d="M0.453,1.658 C0.581,1.705 0.709,1.829 0.837,1.852 C1.020,1.882 1.204,1.863 1.388,1.843 C1.733,1.805 2.078,1.759 2.423,1.703 C2.542,1.685 2.661,1.599 2.779,1.599 C3.055,1.598 3.330,1.625 3.605,1.651 C3.886,1.678 4.168,1.688 4.449,1.754 C4.742,1.822 5.034,2.059 5.328,1.842 C5.354,1.822 5.382,1.865 5.408,1.878 C5.483,1.911 5.557,1.973 5.631,1.971 C5.706,1.969 5.781,1.873 5.856,1.869 C6.039,1.857 6.223,1.895 6.406,1.876 C6.720,1.843 7.034,1.777 7.348,1.731 C7.634,1.691 7.920,1.653 8.206,1.617 C8.455,1.587 8.704,1.541 8.953,1.537 C9.298,1.533 9.644,1.569 9.989,1.571 C10.340,1.576 10.691,1.545 11.042,1.559 C11.377,1.574 11.713,1.617 12.048,1.668 C12.204,1.693 12.359,1.778 12.514,1.808 C12.589,1.821 12.666,1.733 12.740,1.752 C12.993,1.818 13.245,1.910 13.497,1.990 C13.513,1.994 13.529,1.972 13.546,1.970 C13.717,1.934 13.889,1.886 14.061,1.869 C14.342,1.841 14.622,1.853 14.903,1.810 C15.259,1.756 15.615,1.647 15.971,1.599 C16.138,1.578 16.305,1.668 16.472,1.672 C16.845,1.678 17.219,1.649 17.592,1.656 C18.122,1.665 15.470,0.992 16.000,0.999 C16.529,1.006 20.239,1.698 20.768,1.697 C20.886,1.697 21.005,1.727 21.123,1.720 C21.447,1.704 21.771,1.658 22.095,1.654 C22.365,1.651 22.635,1.710 22.906,1.708 C23.343,1.705 23.781,1.668 24.219,1.661 C24.699,1.655 25.180,1.668 25.661,1.668 C25.888,1.667 26.116,1.634 26.343,1.651 C26.705,1.678 27.066,1.727 27.428,1.780 C27.660,1.817 27.893,1.884 28.125,1.927 C28.411,1.978 28.696,1.145 28.982,1.201 C29.301,1.265 29.619,1.363 29.938,1.412 C30.180,1.450 30.424,1.356 30.663,1.633 C30.693,1.668 30.727,1.619 30.760,1.618 C30.851,1.617 30.943,1.604 31.034,1.625 C31.188,1.660 31.342,1.760 31.496,1.763 C31.831,1.769 32.166,1.739 32.501,1.711 C32.772,1.687 33.043,1.651 33.313,1.605 C33.556,1.564 33.799,1.478 34.042,1.458 C34.215,1.445 34.387,1.521 34.560,1.532 C34.858,1.551 35.156,1.554 35.453,1.556 C35.864,1.559 36.274,1.556 36.684,1.553 C37.066,1.547 37.448,1.528 37.830,1.527 C38.267,1.525 38.704,1.533 39.141,1.546 C39.449,1.556 39.757,1.599 40.065,1.599 C40.579,1.599 41.092,1.562 41.606,1.571 C41.918,1.574 42.230,1.653 42.542,1.662 C42.790,1.668 43.039,1.602 43.287,1.602 C43.476,1.602 43.664,1.674 43.852,1.685 C44.122,1.700 44.391,1.688 44.660,1.692 C44.984,1.696 45.309,1.720 45.633,1.707 C46.075,1.688 46.517,1.633 46.959,1.608 C47.353,1.585 47.747,1.578 48.140,1.569 C48.541,1.557 48.942,1.549 49.342,1.544 C49.754,1.540 50.165,1.550 50.576,1.539 C50.910,1.531 51.244,1.496 51.579,1.483 C51.741,1.477 51.903,1.500 52.065,1.500 C52.319,1.500 52.573,1.487 52.826,1.488 C53.042,1.490 53.257,1.507 53.472,1.516 C53.648,1.522 53.824,1.535 54.000,1.525 L54.000,1.525 L54.000,0.226 L54.000,0.226 C53.862,0.291 53.723,0.364 53.585,0.386 C53.309,0.430 53.033,0.407 52.757,0.432 C52.589,0.446 52.421,0.528 52.254,0.523 C51.953,0.515 51.653,0.446 51.352,0.434 C51.061,0.423 50.770,0.463 50.479,0.458 C50.139,0.452 49.798,0.408 49.458,0.400 C48.998,0.386 48.539,0.397 48.080,0.381 C47.725,0.371 47.369,0.321 47.013,0.308 C46.545,0.291 46.078,0.291 45.610,0.286 C45.201,0.283 44.791,0.276 44.382,0.282 C44.220,0.285 44.058,0.338 43.896,0.332 C43.589,0.324 43.281,0.264 42.974,0.269 C42.585,0.277 42.197,0.331 41.808,0.354 C41.739,0.358 41.669,0.272 41.600,0.283 C41.417,0.309 41.235,0.403 41.052,0.407 C40.615,0.420 40.177,0.394 39.739,0.387 C39.653,0.386 39.566,0.389 39.480,0.396 C39.199,0.421 38.918,0.455 38.637,0.467 C38.507,0.474 38.377,0.421 38.248,0.426 C37.919,0.441 37.590,0.512 37.261,0.490 C36.656,0.449 36.051,0.308 35.446,0.497 C35.430,0.503 35.413,0.485 35.397,0.483 C35.030,0.467 34.664,0.458 34.297,0.438 C33.994,0.421 33.690,0.412 33.387,0.372 C33.031,0.322 32.674,0.239 32.318,0.176 C32.096,0.139 31.874,0.119 31.652,0.078 C31.573,0.063 31.492,-0.042 31.413,-0.005 C31.231,0.082 31.050,0.045 30.867,0.020 C30.691,-0.002 30.514,0.196 30.337,0.220 C30.013,0.265 29.689,0.259 29.365,0.263 C29.154,0.265 28.942,0.282 28.731,0.231 C28.202,0.105 27.673,0.784 27.143,0.676 C26.831,0.613 26.518,0.664 26.205,0.644 C25.935,0.627 25.664,0.569 25.394,0.557 C25.113,0.544 24.833,0.571 24.552,0.569 C24.276,0.569 24.000,0.545 23.724,0.545 C23.220,0.545 22.717,0.564 22.213,0.561 C21.997,0.559 21.781,0.521 21.565,0.512 C21.425,0.504 21.285,0.521 21.144,0.524 C20.863,0.529 20.581,0.544 20.300,0.534 C19.960,0.524 19.620,0.487 19.279,0.476 C19.177,0.472 19.075,0.533 18.973,0.534 C18.837,0.535 18.702,0.490 18.567,0.492 C18.156,0.498 17.745,0.518 17.334,0.532 C17.199,0.535 17.064,0.535 16.929,0.547 C16.769,0.559 16.608,0.591 16.447,0.595 C16.296,0.598 16.145,0.577 15.993,0.569 C15.755,0.557 15.517,0.569 15.279,0.532 C14.857,0.467 14.436,0.349 14.015,0.301 C13.806,0.279 13.596,0.351 13.387,0.393 C13.263,0.417 13.127,0.627 13.018,0.463 C12.830,0.183 12.653,0.485 12.471,0.434 C12.285,0.383 12.097,0.607 11.910,0.621 C11.461,0.654 11.012,0.638 10.563,0.637 C10.504,0.637 10.446,0.573 10.387,0.581 C10.096,0.615 9.805,0.687 9.513,0.699 C9.167,0.715 8.821,0.685 8.474,0.677 C8.301,0.673 8.127,0.708 7.954,0.670 C7.662,0.608 7.371,0.485 7.079,0.420 C6.868,0.372 6.656,0.308 6.446,0.378 C6.232,0.452 6.019,0.013 5.806,0.374 C5.788,0.405 5.764,0.348 5.742,0.344 C5.618,0.320 5.494,0.288 5.370,0.287 C5.264,0.287 5.158,0.334 5.051,0.346 C4.822,0.372 4.593,0.377 4.364,0.413 C4.240,0.433 4.117,0.506 3.993,0.535 C3.842,0.570 3.691,0.594 3.541,0.604 C3.303,0.620 3.065,0.666 2.828,0.620 C2.401,0.535 1.975,0.306 1.549,0.306 C1.254,0.306 0.960,-0.001 0.665,0.226 C0.629,0.253 0.590,0.194 0.552,0.180 C0.412,0.131 0.273,0.050 0.133,0.042 C0.088,0.040 0.044,0.042 -0.000,0.045 L-0.000,1.593 C0.013,1.585 0.025,1.572 0.038,1.574 C0.176,1.599 0.315,1.610 0.453,1.658 Z" class="cls-1"/>
</svg>
