<svg xmlns="http://www.w3.org/2000/svg" width="420.38" height="20.8" viewBox="0 0 420.38 20.8">
  <defs>
    <style>
      .cls-1 {
        fill: #221815;
        fill-rule: evenodd;
        opacity: 0.5;
      }
    </style>
  </defs>
  <path id="Copyright_Payme_Inc._All_rights_reserved." data-name="Copyright ©︎ Payme, Inc. All rights reserved." class="cls-1" d="M1190.1,19100.5c0,3.3.06,4.9,1.57,6.4a5.544,5.544,0,0,0,4.04,1.6,5.194,5.194,0,0,0,4.11-1.6,4.271,4.271,0,0,0,1.19-2.6,1.3,1.3,0,0,0-.31-0.9,1.228,1.228,0,0,0-.83-0.3,1.322,1.322,0,0,0-.7.2,2.2,2.2,0,0,0-.59.9,2.983,2.983,0,0,1-2.91,2.2,3.06,3.06,0,0,1-2.26-1c-0.82-.9-0.93-1.9-0.93-4.9s0.11-4,.93-4.9a2.983,2.983,0,0,1,2.26-.9,2.894,2.894,0,0,1,2.91,2.1,2.2,2.2,0,0,0,.59.9,1.322,1.322,0,0,0,.7.2,1.228,1.228,0,0,0,.83-0.3,1.148,1.148,0,0,0,.31-0.9,3.853,3.853,0,0,0-1.19-2.5,4.933,4.933,0,0,0-4.11-1.7,5.544,5.544,0,0,0-4.04,1.6C1190.16,19095.7,1190.1,19097.2,1190.1,19100.5Zm15.59,2.3a4.389,4.389,0,0,1,.77-3.1,2.229,2.229,0,0,1,1.63-.6,2.2,2.2,0,0,1,1.62.6,4.34,4.34,0,0,1,.78,3.1,4.211,4.211,0,0,1-.78,3,2.2,2.2,0,0,1-1.62.6,2.229,2.229,0,0,1-1.63-.6A4.257,4.257,0,0,1,1205.69,19102.8Zm-2.25,0a6,6,0,0,0,1.31,4.4,4.928,4.928,0,0,0,6.67,0,6.04,6.04,0,0,0,1.31-4.4c0-1.9-.23-3.3-1.31-4.4a4.928,4.928,0,0,0-6.67,0C1203.66,19099.5,1203.44,19100.9,1203.44,19102.8Zm12.28,9.6a1.162,1.162,0,0,0,1.91,0,2,2,0,0,0,.17-1v-4.2a3.406,3.406,0,0,0,2.93,1.3,3.857,3.857,0,0,0,2.7-1c1.08-1.1,1.23-2.9,1.23-4.7,0-1.9-.15-3.7-1.23-4.8a3.917,3.917,0,0,0-2.73-1,3.4,3.4,0,0,0-2.91,1.3,1.549,1.549,0,0,0-.2-0.8,1.046,1.046,0,0,0-.91-0.4,1.115,1.115,0,0,0-.93.5,1.476,1.476,0,0,0-.2,1v12.8A2.117,2.117,0,0,0,1215.72,19112.4Zm6.7-9.6c0,1.9-.29,3.6-2.31,3.6-2.04,0-2.32-1.7-2.32-3.6,0-2,.28-3.7,2.32-3.7C1222.13,19099.1,1222.42,19100.8,1222.42,19102.8Zm12.46-4a1.358,1.358,0,0,0,.12-1,1.053,1.053,0,0,0-1.04-.7,1.189,1.189,0,0,0-1.09,1.1l-2.24,6.8-2.21-6.8a1.172,1.172,0,0,0-1.08-1.1,1.058,1.058,0,0,0-1.05.7,1.463,1.463,0,0,0,.12,1l3.13,9.1-0.54,1.7a1.436,1.436,0,0,1-1.44,1.2,0.873,0.873,0,0,0-.75.2,0.81,0.81,0,0,0-.34.8,0.925,0.925,0,0,0,.32.7,1.658,1.658,0,0,0,1.03.3,2.985,2.985,0,0,0,2.19-.8,4.13,4.13,0,0,0,.81-1.4Zm4.5-.4a1.69,1.69,0,0,0-.2-0.9,1.046,1.046,0,0,0-.91-0.4,1.1,1.1,0,0,0-.92.5,1.42,1.42,0,0,0-.2,1v8.3a2.131,2.131,0,0,0,.16,1,1.172,1.172,0,0,0,1.92,0,2.131,2.131,0,0,0,.16-1v-5.3a2.259,2.259,0,0,1,2.28-2.5,2.5,2.5,0,0,1,1.21.3,1.984,1.984,0,0,0,.87.3,1.08,1.08,0,0,0,.77-0.3,1.161,1.161,0,0,0,.33-0.8,1.21,1.21,0,0,0-.67-1,3.06,3.06,0,0,0-1.96-.5A3.589,3.589,0,0,0,1239.38,19098.4Zm9.47,8.5v-8.3a2.131,2.131,0,0,0-.16-1,1.172,1.172,0,0,0-1.92,0,2.131,2.131,0,0,0-.16,1v8.3a2.131,2.131,0,0,0,.16,1,1.172,1.172,0,0,0,1.92,0A2.131,2.131,0,0,0,1248.85,19106.9Zm-2.47-13.4a1.351,1.351,0,1,0,2.7,0A1.351,1.351,0,0,0,1246.38,19093.5Zm9.54,19.5a4.5,4.5,0,0,0,4.8-4.7v-9.7a1.42,1.42,0,0,0-.2-1,1.1,1.1,0,0,0-.92-0.5,1.035,1.035,0,0,0-.91.4,1.457,1.457,0,0,0-.2.8,3.56,3.56,0,0,0-2.87-1.2,3.786,3.786,0,0,0-2.69.9c-1.08,1.1-1.25,2.7-1.25,4.6,0,1.8.17,3.4,1.25,4.5a3.772,3.772,0,0,0,2.66,1,3.391,3.391,0,0,0,2.89-1.3v1.4c0,1.5-.72,2.9-2.62,2.9a2.8,2.8,0,0,1-1.79-.6,1.9,1.9,0,0,0-1.02-.4,0.989,0.989,0,0,0-.91,1,2.019,2.019,0,0,0,1.14,1.3A5.159,5.159,0,0,0,1255.92,19113Zm2.56-10.4c0,1.7-.25,3.5-2.27,3.5s-2.29-1.8-2.29-3.5c0-1.8.27-3.5,2.29-3.5S1258.48,19100.8,1258.48,19102.6Zm7.83-1.1a2.145,2.145,0,0,1,2.3-2.4,2.118,2.118,0,0,1,2.26,2.4v5.4a2.117,2.117,0,0,0,.17,1,1.162,1.162,0,0,0,1.91,0,2,2,0,0,0,.17-1v-5.7a4.053,4.053,0,0,0-1.13-3.1,3.612,3.612,0,0,0-2.76-1,3.661,3.661,0,0,0-2.92,1.2v-4.2a2,2,0,0,0-.17-1,1.162,1.162,0,0,0-1.91,0,2.117,2.117,0,0,0-.17,1v12.8a2.117,2.117,0,0,0,.17,1,1.162,1.162,0,0,0,1.91,0,2,2,0,0,0,.17-1v-5.4Zm10.5,3.8a2.8,2.8,0,0,0,3.03,3h0.22a2.281,2.281,0,0,0,.94-0.1,0.912,0.912,0,0,0,.46-0.8,0.806,0.806,0,0,0-.46-0.8,1.683,1.683,0,0,0-.81-0.2,1.043,1.043,0,0,1-1.13-1.2v-6.3h1.21a1.584,1.584,0,0,0,.78-0.1,0.9,0.9,0,0,0,.39-0.8,0.851,0.851,0,0,0-.39-0.7,1.584,1.584,0,0,0-.78-0.1h-1.21v-1.8a2.117,2.117,0,0,0-.17-1,1.162,1.162,0,0,0-1.91,0,2.117,2.117,0,0,0-.17,1v1.8h-0.51a1.63,1.63,0,0,0-.79.1,0.851,0.851,0,0,0-.39.7,0.9,0.9,0,0,0,.39.8,1.63,1.63,0,0,0,.79.1h0.51v6.4Zm27.78-4.8a7.965,7.965,0,1,0-7.97,8A7.991,7.991,0,0,0,1304.59,19100.5Zm-1.53,0a6.442,6.442,0,1,1-12.88,0A6.44,6.44,0,1,1,1303.06,19100.5Zm-9.93,0c0,2.5,1.45,4.1,3.66,4.1a2.764,2.764,0,0,0,2.13-.8,0.837,0.837,0,0,0,.4-0.7,0.437,0.437,0,0,0-.19-0.4,0.465,0.465,0,0,0-.47-0.2,1.052,1.052,0,0,0-.65.3,1.883,1.883,0,0,1-1.22.4c-1.53,0-2.17-1.1-2.17-2.7s0.64-2.7,2.17-2.7a1.883,1.883,0,0,1,1.22.4,1.052,1.052,0,0,0,.65.3,0.465,0.465,0,0,0,.47-0.2,0.437,0.437,0,0,0,.19-0.4,0.837,0.837,0,0,0-.4-0.7,3.188,3.188,0,0,0-2.13-.8C1294.58,19096.4,1293.13,19098,1293.13,19100.5Zm20.03,7.4a1.121,1.121,0,0,0,1.01.5,1.133,1.133,0,0,0,1.01-.5,1.9,1.9,0,0,0,.18-1.1v-4.6h3.56a4.659,4.659,0,0,0,5.02-4.8c0-2.7-1.96-4.7-5.02-4.7h-4.49a1.56,1.56,0,0,0-1.11.3,1.529,1.529,0,0,0-.34,1.1v12.7A1.9,1.9,0,0,0,1313.16,19107.9Zm2.2-13.1h3.43a2.605,2.605,0,1,1,0,5.2h-3.43v-5.2Zm9.89,10.3a3.49,3.49,0,0,0,.89,2.4,4.261,4.261,0,0,0,3,1,3.6,3.6,0,0,0,2.99-1.2,0.952,0.952,0,0,0,.26.8,1.021,1.021,0,0,0,.81.3,1.08,1.08,0,0,0,.96-0.5,1.612,1.612,0,0,0,.16-1v-6c0-2.5-1.57-3.8-4.56-3.8a6.032,6.032,0,0,0-2.84.6,1.907,1.907,0,0,0-1.05,1.3,0.919,0.919,0,0,0,.27.7,0.834,0.834,0,0,0,.65.3,1.593,1.593,0,0,0,.81-0.3,3.148,3.148,0,0,1,2.13-.7c1.64,0,2.34.7,2.34,2.1v0.7h-2.96C1326.58,19101.8,1325.25,19103.2,1325.25,19105.1Zm2.18-.1c0-1,.68-1.6,2-1.6h2.64v0.9a2.386,2.386,0,0,1-.5,1.7,2.842,2.842,0,0,1-2.03.6C1328.12,19106.6,1327.43,19106,1327.43,19105Zm17.41-6.2a1.408,1.408,0,0,0,.12-1,1.058,1.058,0,0,0-1.05-.7,1.189,1.189,0,0,0-1.09,1.1l-2.24,6.8-2.2-6.8a1.189,1.189,0,0,0-1.09-1.1,1.045,1.045,0,0,0-1.04.7,1.408,1.408,0,0,0,.12,1l3.12,9.1-0.54,1.7a1.436,1.436,0,0,1-1.44,1.2,0.883,0.883,0,0,0-.75.2,0.81,0.81,0,0,0-.34.8,0.925,0.925,0,0,0,.32.7,1.678,1.678,0,0,0,1.03.3,2.955,2.955,0,0,0,2.19-.8,3.988,3.988,0,0,0,.82-1.4Zm18.1,2.4a4.09,4.09,0,0,0-1.18-3.1,3.782,3.782,0,0,0-2.82-1,4.221,4.221,0,0,0-3.5,1.6,3.491,3.491,0,0,0-3.17-1.6,3.96,3.96,0,0,0-2.93,1.2,1.777,1.777,0,0,0-.2-0.8,1.053,1.053,0,0,0-.92-0.4,1.111,1.111,0,0,0-.92.5,1.476,1.476,0,0,0-.2,1v8.3a2.117,2.117,0,0,0,.17,1,1.162,1.162,0,0,0,1.91,0,2.117,2.117,0,0,0,.17-1v-5.4a2.157,2.157,0,0,1,2.31-2.4,2.113,2.113,0,0,1,2.24,2.4v5.4a2,2,0,0,0,.17,1,1.162,1.162,0,0,0,1.91,0,2.117,2.117,0,0,0,.17-1v-5.5a2.15,2.15,0,0,1,2.31-2.3,2.113,2.113,0,0,1,2.24,2.4v5.4a2,2,0,0,0,.17,1,1.162,1.162,0,0,0,1.91,0,2.131,2.131,0,0,0,.16-1v-5.7Zm2.66,1.6c0,4.2,2.25,5.7,5.03,5.7a6.014,6.014,0,0,0,2.92-.7,2.246,2.246,0,0,0,1.12-1.4,1.044,1.044,0,0,0-.92-1,1.544,1.544,0,0,0-.92.5,3.955,3.955,0,0,1-2.14.7c-1.86,0-2.86-1.3-2.86-3.2h5.93a1.249,1.249,0,0,0,.99-0.3,1.141,1.141,0,0,0,.3-1c-0.06-2.9-1.8-5-4.72-5C1367.49,19097.1,1365.6,19099.1,1365.6,19102.8Zm7.24-.9h-5.01a3.822,3.822,0,0,1,.28-1.6,2.452,2.452,0,0,1,4.43,0A4.149,4.149,0,0,1,1372.84,19101.9Zm7.2,5.2a2,2,0,0,0,.15-1,1.165,1.165,0,0,0-1.14-.9,0.819,0.819,0,0,0-.67.3,1.5,1.5,0,0,0-.49.9l-0.97,2.9a1.9,1.9,0,0,0-.15,1,1.076,1.076,0,0,0,1.14.8,1.266,1.266,0,0,0,.67-0.2,1.933,1.933,0,0,0,.49-0.9Zm10.91-.3v-12.6a1.9,1.9,0,0,0-.18-1.1,1.27,1.27,0,0,0-2.02,0,1.9,1.9,0,0,0-.18,1.1v12.6a1.9,1.9,0,0,0,.18,1.1,1.27,1.27,0,0,0,2.02,0A1.9,1.9,0,0,0,1390.95,19106.8Zm5.84-5.3a2.157,2.157,0,0,1,2.31-2.4,2.113,2.113,0,0,1,2.24,2.4v5.4a2.117,2.117,0,0,0,.17,1,1.162,1.162,0,0,0,1.91,0,2.117,2.117,0,0,0,.17-1v-5.7a4.046,4.046,0,0,0-1.12-3.1,3.617,3.617,0,0,0-2.75-1,4.014,4.014,0,0,0-2.94,1.2,1.655,1.655,0,0,0-.2-0.8,1.046,1.046,0,0,0-.91-0.4,1.115,1.115,0,0,0-.93.5,1.476,1.476,0,0,0-.2,1v8.3a2.117,2.117,0,0,0,.17,1,1.162,1.162,0,0,0,1.91,0,2,2,0,0,0,.17-1v-5.4Zm9.46,1.3c0,4.1,2.42,5.7,4.95,5.7a4.617,4.617,0,0,0,2.44-.7,1.954,1.954,0,0,0,1.09-1.4,0.925,0.925,0,0,0-.32-0.7,0.887,0.887,0,0,0-.69-0.3,1.317,1.317,0,0,0-.89.4,2.153,2.153,0,0,1-1.63.6,2.475,2.475,0,0,1-2.04-.9,4.1,4.1,0,0,1-.67-2.7,4.6,4.6,0,0,1,.67-2.8,2.475,2.475,0,0,1,2.04-.9,2.153,2.153,0,0,1,1.63.6,1.317,1.317,0,0,0,.89.4,0.887,0.887,0,0,0,.69-0.3,0.925,0.925,0,0,0,.32-0.7,1.62,1.62,0,0,0-1.09-1.3,4.008,4.008,0,0,0-2.44-.7C1408.67,19097.1,1406.25,19098.6,1406.25,19102.8Zm13.9,4a1.605,1.605,0,1,0-1.6,1.6A1.592,1.592,0,0,0,1420.15,19106.8Zm15.67-3.6h-5.02l2.51-6.9Zm0.73,2,0.79,2.1a2.019,2.019,0,0,0,.51.9,1.347,1.347,0,0,0,.65.2,1.278,1.278,0,0,0,.87-0.3,1.378,1.378,0,0,0,.08-1.6l-4.8-12.8a2.4,2.4,0,0,0-.47-0.8,1.243,1.243,0,0,0-.87-0.3,1.227,1.227,0,0,0-.87.3,2.245,2.245,0,0,0-.47.8l-4.8,12.8a1.378,1.378,0,0,0,.08,1.6,1.276,1.276,0,0,0,1.51.1,2.115,2.115,0,0,0,.52-0.9l0.78-2.1h6.49Zm5.12,0.1a2.794,2.794,0,0,0,3.02,3h0.22a2.362,2.362,0,0,0,.95-0.1,0.925,0.925,0,0,0,.45-0.8,0.814,0.814,0,0,0-.45-0.8,1.727,1.727,0,0,0-.82-0.2,1.043,1.043,0,0,1-1.13-1.2v-11.1a2.131,2.131,0,0,0-.16-1,1.172,1.172,0,0,0-1.92,0,2.131,2.131,0,0,0-.16,1v11.2Zm6.32,0a2.8,2.8,0,0,0,3.03,3h0.22a2.281,2.281,0,0,0,.94-0.1,0.912,0.912,0,0,0,.46-0.8,0.806,0.806,0,0,0-.46-0.8,1.683,1.683,0,0,0-.81-0.2,1.038,1.038,0,0,1-1.13-1.2v-11.1a2.117,2.117,0,0,0-.17-1,1.162,1.162,0,0,0-1.91,0,2.117,2.117,0,0,0-.17,1v11.2Zm13.87-6.9a1.71,1.71,0,0,0-.19-0.9,1.053,1.053,0,0,0-.92-0.4,1.111,1.111,0,0,0-.92.5,1.42,1.42,0,0,0-.2,1v8.3a2,2,0,0,0,.17,1,1.162,1.162,0,0,0,1.91,0,2.131,2.131,0,0,0,.16-1v-5.3a2.264,2.264,0,0,1,2.28-2.5,2.5,2.5,0,0,1,1.21.3,2.025,2.025,0,0,0,.87.3,1.064,1.064,0,0,0,.77-0.3,1.161,1.161,0,0,0,.33-0.8,1.19,1.19,0,0,0-.67-1,3.043,3.043,0,0,0-1.96-.5A3.6,3.6,0,0,0,1461.86,19098.4Zm9.47,8.5v-8.3a2.131,2.131,0,0,0-.16-1,0.992,0.992,0,0,0-.96-0.5,1.013,1.013,0,0,0-.96.5,2.131,2.131,0,0,0-.16,1v8.3a2.131,2.131,0,0,0,.16,1,1.013,1.013,0,0,0,.96.5,0.992,0.992,0,0,0,.96-0.5A2.131,2.131,0,0,0,1471.33,19106.9Zm-2.47-13.4a1.356,1.356,0,1,0,1.35-1.3A1.335,1.335,0,0,0,1468.86,19093.5Zm9.55,19.5a4.5,4.5,0,0,0,4.79-4.7v-9.7a1.491,1.491,0,0,0-.19-1,1.115,1.115,0,0,0-.93-0.5,1.046,1.046,0,0,0-.91.4,1.549,1.549,0,0,0-.2.8,3.548,3.548,0,0,0-2.87-1.2,3.8,3.8,0,0,0-2.69.9c-1.07,1.1-1.25,2.7-1.25,4.6,0,1.8.18,3.4,1.25,4.5a3.78,3.78,0,0,0,2.67,1,3.372,3.372,0,0,0,2.88-1.3v1.4c0,1.5-.72,2.9-2.62,2.9a2.8,2.8,0,0,1-1.79-.6,1.906,1.906,0,0,0-1.01-.4,0.99,0.99,0,0,0-.92,1,2.009,2.009,0,0,0,1.15,1.3A5.109,5.109,0,0,0,1478.41,19113Zm2.55-10.4c0,1.7-.24,3.5-2.27,3.5s-2.29-1.8-2.29-3.5c0-1.8.27-3.5,2.29-3.5S1480.96,19100.8,1480.96,19102.6Zm7.83-1.1a2.15,2.15,0,0,1,2.3-2.4,2.12,2.12,0,0,1,2.27,2.4v5.4a2.131,2.131,0,0,0,.16,1,1,1,0,0,0,.96.5,1.013,1.013,0,0,0,.96-0.5,2.131,2.131,0,0,0,.16-1v-5.7a4.016,4.016,0,0,0-1.13-3.1,3.6,3.6,0,0,0-2.75-1,3.681,3.681,0,0,0-2.93,1.2v-4.2a2.131,2.131,0,0,0-.16-1,1.013,1.013,0,0,0-.96-0.5,1,1,0,0,0-.96.5,2.131,2.131,0,0,0-.16,1v12.8a2.131,2.131,0,0,0,.16,1,1,1,0,0,0,.96.5,1.013,1.013,0,0,0,.96-0.5,2.131,2.131,0,0,0,.16-1v-5.4Zm10.51,3.8a2.794,2.794,0,0,0,3.02,3h0.22a2.362,2.362,0,0,0,.95-0.1,0.925,0.925,0,0,0,.45-0.8,0.814,0.814,0,0,0-.45-0.8,1.727,1.727,0,0,0-.82-0.2,1.043,1.043,0,0,1-1.13-1.2v-6.3h1.21a1.584,1.584,0,0,0,.78-0.1,0.908,0.908,0,0,0,.4-0.8,0.862,0.862,0,0,0-.4-0.7,1.584,1.584,0,0,0-.78-0.1h-1.21v-1.8a2,2,0,0,0-.17-1,1.162,1.162,0,0,0-1.91,0,2.131,2.131,0,0,0-.16,1v1.8h-0.52a1.584,1.584,0,0,0-.78.1,0.837,0.837,0,0,0-.4.7,0.887,0.887,0,0,0,.4.8,1.584,1.584,0,0,0,.78.1h0.52v6.4Zm10.53,3.2c2.67,0,4.65-1.2,4.65-3.6,0-1.9-1.24-2.9-3.31-3.1l-1.77-.2c-1.02-.1-1.54-0.4-1.54-1.2,0-.9.68-1.5,2.01-1.5a4.585,4.585,0,0,1,2.32.6,2.647,2.647,0,0,0,.72.2,0.84,0.84,0,0,0,.66-0.3,0.815,0.815,0,0,0,.28-0.6,0.963,0.963,0,0,0-.21-0.7,1.954,1.954,0,0,0-.73-0.4,6.859,6.859,0,0,0-3-.6c-2.33,0-4.21,1.2-4.21,3.4,0,1.9,1.22,2.8,3.3,3l1.79,0.2c1.08,0.1,1.51.6,1.51,1.3,0,1.1-1.02,1.6-2.46,1.6a4.01,4.01,0,0,1-2.69-.8,1.746,1.746,0,0,0-.84-0.3,0.771,0.771,0,0,0-.61.3,0.757,0.757,0,0,0-.37.7,1.379,1.379,0,0,0,.62,1A7.082,7.082,0,0,0,1509.83,19108.5Zm14.47-10.1a1.69,1.69,0,0,0-.2-0.9,1.046,1.046,0,0,0-.91-0.4,1.115,1.115,0,0,0-.93.5,1.491,1.491,0,0,0-.19,1v8.3a2.131,2.131,0,0,0,.16,1,1.162,1.162,0,0,0,1.91,0,2,2,0,0,0,.17-1v-5.3a2.259,2.259,0,0,1,2.28-2.5,2.523,2.523,0,0,1,1.21.3,1.984,1.984,0,0,0,.87.3,1.08,1.08,0,0,0,.77-0.3,1.1,1.1,0,0,0-.34-1.8,3.06,3.06,0,0,0-1.96-.5A3.589,3.589,0,0,0,1524.3,19098.4Zm6.08,4.4c0,4.2,2.25,5.7,5.03,5.7a5.943,5.943,0,0,0,2.91-.7,2.265,2.265,0,0,0,1.13-1.4,1.053,1.053,0,0,0-.93-1,1.55,1.55,0,0,0-.91.5,4.017,4.017,0,0,1-2.15.7c-1.86,0-2.86-1.3-2.86-3.2h5.93a1.238,1.238,0,0,0,.99-0.3,1.144,1.144,0,0,0,.31-1c-0.06-2.9-1.8-5-4.72-5C1532.26,19097.1,1530.38,19099.1,1530.38,19102.8Zm7.24-.9h-5.02a3.979,3.979,0,0,1,.29-1.6,2.444,2.444,0,0,1,4.42,0A4.14,4.14,0,0,1,1537.62,19101.9Zm8.54,6.6c2.66,0,4.64-1.2,4.64-3.6,0-1.9-1.23-2.9-3.31-3.1l-1.76-.2c-1.03-.1-1.54-0.4-1.54-1.2,0-.9.67-1.5,2-1.5a4.558,4.558,0,0,1,2.32.6,2.609,2.609,0,0,0,.73.2,0.869,0.869,0,0,0,.66-0.3,0.844,0.844,0,0,0,.27-0.6,0.963,0.963,0,0,0-.21-0.7,1.979,1.979,0,0,0-.72-0.4,6.936,6.936,0,0,0-3.01-.6c-2.33,0-4.21,1.2-4.21,3.4,0,1.9,1.22,2.8,3.3,3l1.79,0.2c1.08,0.1,1.51.6,1.51,1.3,0,1.1-1.02,1.6-2.45,1.6a4.02,4.02,0,0,1-2.7-.8,1.713,1.713,0,0,0-.84-0.3,0.771,0.771,0,0,0-.61.3,0.75,0.75,0,0,0-.36.7,1.365,1.365,0,0,0,.61,1A7.094,7.094,0,0,0,1546.16,19108.5Zm6.59-5.7c0,4.2,2.25,5.7,5.03,5.7a6.014,6.014,0,0,0,2.92-.7,2.246,2.246,0,0,0,1.12-1.4,1.044,1.044,0,0,0-.92-1,1.544,1.544,0,0,0-.92.5,3.955,3.955,0,0,1-2.14.7c-1.86,0-2.86-1.3-2.86-3.2h5.93a1.249,1.249,0,0,0,.99-0.3,1.174,1.174,0,0,0,.31-1c-0.07-2.9-1.81-5-4.72-5C1554.64,19097.1,1552.75,19099.1,1552.75,19102.8Zm7.24-.9h-5.01a3.822,3.822,0,0,1,.28-1.6,2.452,2.452,0,0,1,4.43,0A4.149,4.149,0,0,1,1559.99,19101.9Zm7.17-3.5a1.71,1.71,0,0,0-.19-0.9,1.053,1.053,0,0,0-.92-0.4,1.111,1.111,0,0,0-.92.5,1.476,1.476,0,0,0-.2,1v8.3a2,2,0,0,0,.17,1,1.162,1.162,0,0,0,1.91,0,2.117,2.117,0,0,0,.17-1v-5.3a2.257,2.257,0,0,1,2.27-2.5,2.5,2.5,0,0,1,1.21.3,2.025,2.025,0,0,0,.87.3,1.048,1.048,0,0,0,.77-0.3,1.161,1.161,0,0,0,.33-0.8,1.19,1.19,0,0,0-.67-1,3.043,3.043,0,0,0-1.96-.5A3.6,3.6,0,0,0,1567.16,19098.4Zm11.44,9.7a1.852,1.852,0,0,0,.55-0.9l2.85-8.4a1.413,1.413,0,0,0,.13-1,1.058,1.058,0,0,0-1.05-.7,1.189,1.189,0,0,0-1.09,1.1l-2.22,6.7-2.22-6.7a1.189,1.189,0,0,0-1.09-1.1,1.058,1.058,0,0,0-1.05.7,1.463,1.463,0,0,0,.12,1l2.85,8.4a2.014,2.014,0,0,0,.55.9,1.218,1.218,0,0,0,.84.3A1.193,1.193,0,0,0,1578.6,19108.1Zm4.88-5.3c0,4.2,2.24,5.7,5.02,5.7a5.984,5.984,0,0,0,2.92-.7,2.246,2.246,0,0,0,1.12-1.4,1.044,1.044,0,0,0-.92-1,1.523,1.523,0,0,0-.91.5,4.017,4.017,0,0,1-2.15.7c-1.86,0-2.86-1.3-2.86-3.2h5.93a1.249,1.249,0,0,0,.99-0.3,1.174,1.174,0,0,0,.31-1c-0.07-2.9-1.81-5-4.72-5C1585.36,19097.1,1583.48,19099.1,1583.48,19102.8Zm7.24-.9h-5.02a3.815,3.815,0,0,1,.29-1.6,2.444,2.444,0,0,1,4.42,0A4.334,4.334,0,0,1,1590.72,19101.9Zm13.53-7.8a2.117,2.117,0,0,0-.17-1,1.162,1.162,0,0,0-1.91,0,2,2,0,0,0-.17,1v4.2a3.317,3.317,0,0,0-2.92-1.2,3.839,3.839,0,0,0-2.71.9c-1.08,1.1-1.23,2.9-1.23,4.8,0,1.8.15,3.6,1.23,4.7a3.953,3.953,0,0,0,2.73,1,3.415,3.415,0,0,0,2.91-1.3,1.292,1.292,0,0,0,.2.8,1.258,1.258,0,0,0,1.84,0,2.044,2.044,0,0,0,.2-1.1v-12.8Zm-6.87,8.7c0-2,.29-3.7,2.31-3.7,2.04,0,2.32,1.7,2.32,3.7,0,1.9-.28,3.6-2.32,3.6C1597.67,19106.4,1597.38,19104.7,1597.38,19102.8Zm13.1,4a1.605,1.605,0,1,0-1.6,1.6A1.592,1.592,0,0,0,1610.48,19106.8Z" transform="translate(-1190.09 -19092.2)"/>
</svg>
