<?xml version="1.0" encoding="utf-8"?>
<!-- Generator: Adobe Illustrator 23.0.0, SVG Export Plug-In . SVG Version: 6.00 Build 0)  -->
<svg version="1.1" id="_x31_" xmlns="http://www.w3.org/2000/svg" xmlns:xlink="http://www.w3.org/1999/xlink" x="0px" y="0px"
	 viewBox="0 0 64.9 79.47" style="enable-background:new 0 0 64.9 79.47;" xml:space="preserve">
<style type="text/css">
	svg{fill:#d1181b;}
</style>
<g>
	<path d="M9.12,18.46c6.36,1.04,11.78-4.38,10.74-10.74c-0.63-3.85-3.74-6.96-7.59-7.59C5.9-0.91,0.48,4.51,1.52,10.87
		C2.16,14.72,5.26,17.83,9.12,18.46z"/>
	<path d="M18.59,23.76H2.79C1.25,23.76,0,25.02,0,26.55v25.36v5.58v19.03c0,1.92,1.57,2.96,3.48,2.96h0c1.92,0,3.48-1.04,3.48-2.96
		V60.28h7.43v16.24c0,1.92,1.57,2.96,3.48,2.96h0c1.92,0,3.48-1.04,3.48-2.96V57.49v-5.58V26.55
		C21.37,25.02,20.12,23.76,18.59,23.76z"/>
	<path d="M48.16,18.46c6.36,1.04,11.78-4.38,10.74-10.74c-0.63-3.85-3.74-6.96-7.59-7.59c-6.36-1.04-11.78,4.38-10.74,10.74
		C41.2,14.72,44.31,17.82,48.16,18.46z"/>
	<path d="M59.02,26.55c0-1.53-1.25-2.79-2.79-2.79H43.23c-1.53,0-2.79,1.25-2.79,2.79l-5.88,30.41c0,1.53,1.25,2.79,2.79,2.79h3.47
		v16.76c0,1.92,1.57,2.96,3.48,2.96h0c1.92,0,3.48-1.04,3.51-2.96V59.75l4.01,0v16.24c0,1.92,1.57,3.48,3.48,3.48h0
		c1.92,0,3.48-1.57,3.51-3.48V59.75l3.29,0c1.53,0,2.8-1.27,2.8-2.8L59.02,26.55z"/>
</g>
</svg>
