<?xml version="1.0" encoding="utf-8"?>
<!-- Generator: Adobe Illustrator 16.0.4, SVG Export Plug-In . SVG Version: 6.00 Build 0)  -->
<!DOCTYPE svg PUBLIC "-//W3C//DTD SVG 1.1//EN" "http://www.w3.org/Graphics/SVG/1.1/DTD/svg11.dtd">
<svg version="1.1" id="レイヤー_1" xmlns="http://www.w3.org/2000/svg" xmlns:xlink="http://www.w3.org/1999/xlink" x="0px"
	 y="0px" width="32px" height="32px" viewBox="0 0 32 32" enable-background="new 0 0 32 32" xml:space="preserve">
<path fill="#727171" d="M16,0C7.164,0,0,7.164,0,16c0,8.838,7.164,16,16,16c8.837,0,16-7.162,16-16C32,7.164,24.837,0,16,0
	 M19.428,16.006h-2.242V24h-3.322v-7.994h-1.581v-2.824h1.581v-1.828c0-1.309,0.621-3.354,3.352-3.354l2.461,0.01v2.742h-1.786
	c-0.291,0-0.705,0.145-0.705,0.77v1.66h2.533L19.428,16.006z"/>
<rect fill="none" width="32" height="32"/>
</svg>
