<?xml version="1.0" encoding="utf-8"?>
<!-- Generator: Adobe Illustrator 16.0.4, SVG Export Plug-In . SVG Version: 6.00 Build 0)  -->
<!DOCTYPE svg PUBLIC "-//W3C//DTD SVG 1.1//EN" "http://www.w3.org/Graphics/SVG/1.1/DTD/svg11.dtd">
<svg version="1.1" id="レイヤー_1" xmlns="http://www.w3.org/2000/svg" xmlns:xlink="http://www.w3.org/1999/xlink" x="0px"
	 y="0px" width="33.416px" height="33.416px" viewBox="0 0 33.416 33.416" enable-background="new 0 0 33.416 33.416"
	 xml:space="preserve">
<path fill="#6E707B" d="M23.646,33.416H9.77c-5.387,0-9.77-4.383-9.77-9.771V9.77C0,4.383,4.383,0,9.77,0h13.875
	c5.388,0,9.771,4.383,9.771,9.77v13.875C33.416,29.033,29.033,33.416,23.646,33.416 M9.77,3.115c-3.669,0-6.655,2.985-6.655,6.655
	v13.875c0,3.67,2.986,6.654,6.655,6.654h13.875c3.67,0,6.654-2.984,6.654-6.654V9.77c0-3.67-2.984-6.655-6.654-6.655H9.77z"/>
<path fill="#6E707B" d="M27.719,7.797c0,1.15-0.933,2.082-2.081,2.082c-1.15,0-2.084-0.932-2.084-2.082s0.934-2.083,2.084-2.083
	C26.786,5.714,27.719,6.647,27.719,7.797"/>
<path fill="#6E707B" d="M16.708,25.347c-4.763,0-8.637-3.875-8.637-8.639c0-4.763,3.874-8.637,8.637-8.637
	c4.764,0,8.637,3.874,8.637,8.637C25.345,21.472,21.472,25.347,16.708,25.347 M16.708,11.186c-3.045,0-5.522,2.477-5.522,5.522
	s2.477,5.521,5.522,5.521s5.521-2.478,5.521-5.521S19.753,11.186,16.708,11.186"/>
<rect fill="none" width="33.416" height="33.416"/>
</svg>
