<svg xmlns="http://www.w3.org/2000/svg" width="18.812" height="15" viewBox="0 0 18.812 15">
  <defs>
    <style>
      .cls-1 {
        fill-rule: evenodd;
      }
    </style>
  </defs>
  <path id="icon-twitter" class="cls-1" d="M639.824,3326.78h0m-5.792-1.78a3.828,3.828,0,0,0-3.862,3.79,3.758,3.758,0,0,0,.1.86,11.054,11.054,0,0,1-7.96-3.96,3.726,3.726,0,0,0-.523,1.91,3.768,3.768,0,0,0,1.719,3.15,3.955,3.955,0,0,1-1.75-.47v0.04a3.813,3.813,0,0,0,3.1,3.72,4.243,4.243,0,0,1-1.018.13,4.336,4.336,0,0,1-.726-0.07,3.848,3.848,0,0,0,3.607,2.63,7.817,7.817,0,0,1-4.8,1.62c-0.312,0-.619-0.02-0.921-0.05a11.127,11.127,0,0,0,5.92,1.7,10.8,10.8,0,0,0,10.988-10.77c0-.17,0-0.33-0.011-0.49a8.041,8.041,0,0,0,1.927-1.96,7.826,7.826,0,0,1-2.218.59,3.825,3.825,0,0,0,1.7-2.09,7.939,7.939,0,0,1-2.453.92,3.88,3.88,0,0,0-2.819-1.2" transform="translate(-621 -3325)"/>
</svg>
