<?xml version="1.0" encoding="utf-8"?>
<!-- Generator: Adobe Illustrator 18.1.1, SVG Export Plug-In . SVG Version: 6.00 Build 0)  -->
<svg version="1.1" id="レイヤー_1" xmlns="http://www.w3.org/2000/svg" xmlns:xlink="http://www.w3.org/1999/xlink" x="0px"
	 y="0px" width="560px" height="561.4px" viewBox="200 0 560 561.4" enable-background="new 200 0 560 561.4" xml:space="preserve">
<path fill="#182F77" d="M760,280.7c0,154.7-126,280.7-280.7,280.7S200,435.4,200,280.7S326,0,480.7,0S760,126,760,280.7L760,280.7z"
	/>
<g>
	<g>
		<defs>
			<path id="SVGID_1_" d="M760,280.7c0,154.7-126,280.7-280.7,280.7S200,435.4,200,280.7S326,0,480.7,0S760,126,760,280.7L760,280.7
				z"/>
		</defs>
		<clipPath id="SVGID_2_">
			<use xlink:href="#SVGID_1_"  overflow="visible"/>
		</clipPath>
		<g clip-path="url(#SVGID_2_)">
			<path fill="#EAEAEA" d="M566.9,343.7c-9.6-2.7-13.7-21.9-8.2-45.2s17.8-39.7,27.4-37c9.6,2.7,13.7,21.9,8.2,45.2
				C588.9,328.6,576.5,346.4,566.9,343.7L566.9,343.7z"/>
			<g>
				<path fill="#EAEAEA" d="M372.5,261.5c9.6-2.7,21.9,15.1,27.4,37c5.5,23.3,1.4,42.4-8.2,45.2s-21.9-15.1-27.4-37
					C358.8,283.4,362.9,264.3,372.5,261.5L372.5,261.5z"/>
				<path fill="#EAEAEA" d="M558.7,487.4H398.5l11-131.4h136.9L558.7,487.4z"/>
				<rect x="434.1" y="465.5" fill="#93B7E1" width="90.4" height="150.6"/>
				<path fill="#182F77" d="M488.9,465.5h-19.2l-17.8,27.4L467,508h21.9l15.1-15.1L488.9,465.5z"/>
				<path fill="#182F77" d="M468.4,508l-16.4,67.1l27.4,27.4l27.4-27.4L491.6,508H468.4z"/>
				<rect x="317.8" y="158.8" fill="#EEB025" width="8.2" height="80.8"/>
				<path fill="#F1CC21" d="M332.8,216.3c0,6.8-5.5,12.3-12.3,12.3c-6.8,0-12.3-5.5-12.3-12.3s5.5-12.3,12.3-12.3
					C327.3,204,332.8,209.5,332.8,216.3L332.8,216.3z"/>
				<path fill="#F1CC21" d="M321.9,236.9c-8.2,0-13.7,6.8-13.7,13.7v116.4h27.4V250.6C335.6,243.7,328.7,236.9,321.9,236.9
					L321.9,236.9z"/>
				<path fill="#FFFFFF" d="M573.8,297.1c0,69.8-42.4,127.3-95.8,127.3s-95.8-57.5-95.8-127.3s42.4-127.3,95.8-127.3
					S573.8,227.3,573.8,297.1L573.8,297.1z"/>
				<path fill="#4271B8" d="M556,212.2l5.5,97.2h12.3c0,0,4.1-30.1,20.5-37c0,0-2.7-41.1-13.7-53.4C569.7,205.4,556,212.2,556,212.2
					L556,212.2z"/>
				<path fill="#4271B8" d="M401.3,212.2l-5.5,97.2h-12.3c0,0-2.7-30.1-20.5-37c0,0,2.7-41.1,13.7-53.4
					C388.9,205.4,401.3,212.2,401.3,212.2L401.3,212.2z"/>
				<path fill="#93B7E1" d="M480.7,135.6c-78,0-106.8,26-106.8,26v73.9c49.3-16.4,106.8,5.5,106.8,5.5s57.5-21.9,106.8-5.5v-73.9
					C586.1,161.6,558.7,135.6,480.7,135.6L480.7,135.6z"/>
				<path fill="#C2D4ED" d="M402.6,413.5l76.7,52l-30.1,60.2l-63-93.1L402.6,413.5z"/>
				<path fill="#4271B8" d="M209.6,581.9c61.6,82.2,160.2,135.6,269.7,135.6h8.2v-91.7c0-79.4-101.3-191.7-101.3-191.7
					S205.5,577.8,209.6,581.9z"/>
				<path fill="#93B7E1" d="M480.7,90.4l-193.1,64.4l193.1,63l193.1-63L480.7,90.4z"/>
			</g>
			<path fill="#C2D4ED" d="M554.6,413.5l-75.3,52l30.1,60.2l63-93.1L554.6,413.5z"/>
			<path fill="#4271B8" d="M571.1,432.7c0,0-101.3,112.3-101.3,191.7v91.7h9.6c110.9,0,208.1-53.4,269.7-135.6
				C740.8,572.3,571.1,432.7,571.1,432.7z"/>
		</g>
	</g>
</g>
</svg>
