<svg xmlns="http://www.w3.org/2000/svg" width="13" height="15" viewBox="0 0 13 15">
  <defs>
    <style>
      .cls-1 {
        fill-rule: evenodd;
      }
    </style>
  </defs>
  <path id="icon-note" class="cls-1" d="M739.245,70.274h3.536a0.254,0.254,0,0,1,.243.252v0.787a0.359,0.359,0,0,0,.582.34A4.686,4.686,0,0,1,747.18,70c3.043,0,4.816,2.089,4.816,5.469v9.282a0.257,0.257,0,0,1-.243.253h-3.536a0.253,0.253,0,0,1-.243-0.252V76.786c0-1.978-.9-3-2.435-3s-2.515,1.017-2.515,3v7.963a0.25,0.25,0,0,1-.242.253h-3.537A0.256,0.256,0,0,1,739,84.749V70.526A0.244,0.244,0,0,1,739.245,70.274Z" transform="translate(-739 -70)"/>
</svg>
