<?xml version="1.0" encoding="utf-8"?>
<!-- Generator: Adobe Illustrator 18.1.1, SVG Export Plug-In . SVG Version: 6.00 Build 0)  -->
<svg version="1.1" id="レイヤー_1" xmlns="http://www.w3.org/2000/svg" xmlns:xlink="http://www.w3.org/1999/xlink" x="0px"
	 y="0px" width="560px" height="561.4px" viewBox="200 0 560 561.4" enable-background="new 200 0 560 561.4" xml:space="preserve">
<g id="レイヤー_1_1_" display="none">
	<g display="inline">
		<g>
			<defs>
				<path id="SVGID_1_" d="M760,280.7c0,154.7-126,280.7-280.7,280.7S200,435.4,200,280.7S326,0,480.7,0S760,126,760,280.7
					L760,280.7z"/>
			</defs>
			<clipPath id="SVGID_2_">
				<use xlink:href="#SVGID_1_"  overflow="visible"/>
			</clipPath>
			<g clip-path="url(#SVGID_2_)">
				<path fill="#3C7CF1" d="M760,280.7c0,154.7-126,280.7-280.7,280.7S200,435.4,200,280.7S326,0,480.7,0S760,126,760,280.7
					L760,280.7z"/>
				<g>
					<path fill="#F0BA7A" d="M566.9,288.9c-9.6-2.7-13.7-21.9-8.2-45.2c5.5-23.3,17.8-39.7,27.4-37c9.6,2.7,13.7,21.9,8.2,45.2
						C588.9,273.8,576.5,291.6,566.9,288.9L566.9,288.9z"/>
					<g>
						<path fill="#F0BA7A" d="M372.5,206.7c9.6-2.7,21.9,15.1,27.4,37c5.5,23.3,1.4,42.4-8.2,45.2c-9.6,2.7-21.9-15.1-27.4-37
							C358.8,228.7,362.9,209.5,372.5,206.7L372.5,206.7z"/>
						<path fill="#F0BA7A" d="M558.7,432.7H398.5l11-131.4h136.9L558.7,432.7z"/>
						<polygon fill="#92BEFF" points="386.2,379.3 479.3,416.2 571.1,379.3 524.5,561.4 434.1,561.4 						"/>
						<path fill="#FBD303" d="M488.9,410.8h-19.2l-17.8,27.4l15.1,15.1h21.9l15.1-15.1L488.9,410.8z"/>
						<path fill="#FBD303" d="M468.4,453.2l-16.4,135.6l27.4,41.1l27.4-41.1l-15.1-135.6H468.4z"/>
						<path fill="#F7CFA2" d="M573.8,242.3c0,69.8-42.4,127.3-95.8,127.3s-95.8-57.5-95.8-127.3S424.5,115,477.9,115
							S573.8,172.5,573.8,242.3L573.8,242.3z"/>
						<path fill="#102988" d="M494.4,172.5c0,0,41.1,16.4,54.8,34.2c13.7,17.8,11,47.9,11,47.9h12.3c0,0,4.1-30.1,20.5-37
							c0,0-5.5-39.7-13.7-53.4c-15.1-28.8-43.8-43.8-43.8-43.8L494.4,172.5z"/>
						<path fill="#102988" d="M401.3,157.5l-5.5,97.2h-12.3c0,0-2.7-30.1-20.5-37c0,0,2.7-41.1,13.7-53.4
							C388.9,150.6,401.3,157.5,401.3,157.5L401.3,157.5z"/>
						<path fill="#FFFFFF" d="M402.6,358.7l76.7,52L449.2,471l-63-93.1L402.6,358.7z"/>
						<path fill="#102988" d="M209.6,527.1c61.6,82.2,160.2,135.6,269.7,135.6h8.2L460.1,571l-73.9-191.7
							C386.2,379.3,205.5,523,209.6,527.1z"/>
					</g>
					<path fill="#FFFFFF" d="M554.6,358.7l-75.3,52l30.1,60.2l63-93.1L554.6,358.7z"/>
					<path fill="#102988" d="M571.1,377.9l-73.9,191.7l-27.4,91.7h9.6c110.9,0,208.1-53.4,269.7-135.6
						C740.8,517.6,571.1,377.9,571.1,377.9z"/>
				</g>
				<path fill="none" d="M760,280.7c0,154.7-126,280.7-280.7,280.7S200,435.4,200,280.7S326,0,480.7,0S760,126,760,280.7L760,280.7z
					"/>
				<path fill="#102988" d="M528.6,179.4c-15.1,1.4-50.7,23.3-79.4,38.3c-54.8,28.8-104.1-17.8-128.7-38.3
					c61.6,5.5,69.8-110.9,167-95.8C580.6,97.2,551.9,176.6,528.6,179.4z"/>
			</g>
		</g>
	</g>
</g>
<g id="レイヤー_1のコピー">
	<g>
		<g>
			<defs>
				<path id="SVGID_3_" d="M760,280.7c0,154.7-126,280.7-280.7,280.7S200,435.4,200,280.7S326,0,480.7,0S760,126,760,280.7
					L760,280.7z"/>
			</defs>
			<clipPath id="SVGID_4_">
				<use xlink:href="#SVGID_3_"  overflow="visible"/>
			</clipPath>
			<g clip-path="url(#SVGID_4_)">
				<path fill="#3C7CF1" d="M760,280.7c0,154.7-126,280.7-280.7,280.7S200,435.4,200,280.7S326,0,480.7,0S760,126,760,280.7
					L760,280.7z"/>
				<g>
					<path fill="#EAEAEA" d="M566.9,288.9c-9.6-2.7-13.7-21.9-8.2-45.2c5.5-23.3,17.8-39.7,27.4-37c9.6,2.7,13.7,21.9,8.2,45.2
						C588.9,273.8,576.5,291.6,566.9,288.9L566.9,288.9z"/>
					<g>
						<path fill="#EAEAEA" d="M372.5,206.7c9.6-2.7,21.9,15.1,27.4,37c5.5,23.3,1.4,42.4-8.2,45.2c-9.6,2.7-21.9-15.1-27.4-37
							C358.8,228.7,362.9,209.5,372.5,206.7L372.5,206.7z"/>
						<path fill="#EAEAEA" d="M558.7,432.7H398.5l11-131.4h136.9L558.7,432.7z"/>
						<polygon fill="#92BEFF" points="386.2,379.3 479.3,416.2 571.1,379.3 524.5,561.4 434.1,561.4 						"/>
						<path fill="#FBD303" d="M488.9,410.8h-19.2l-17.8,27.4l15.1,15.1h21.9l15.1-15.1L488.9,410.8z"/>
						<path fill="#FBD303" d="M468.4,453.2l-16.4,135.6l27.4,41.1l27.4-41.1l-15.1-135.6H468.4z"/>
						<path fill="#FFFFFF" d="M573.8,242.3c0,69.8-42.4,127.3-95.8,127.3s-95.8-57.5-95.8-127.3S424.5,115,477.9,115
							S573.8,172.5,573.8,242.3L573.8,242.3z"/>
						<path fill="#102988" d="M494.4,172.5c0,0,41.1,16.4,54.8,34.2c13.7,17.8,11,47.9,11,47.9h12.3c0,0,4.1-30.1,20.5-37
							c0,0-5.5-39.7-13.7-53.4c-15.1-28.8-43.8-43.8-43.8-43.8L494.4,172.5z"/>
						<path fill="#102988" d="M401.3,157.5l-5.5,97.2h-12.3c0,0-2.7-30.1-20.5-37c0,0,2.7-41.1,13.7-53.4
							C388.9,150.6,401.3,157.5,401.3,157.5L401.3,157.5z"/>
						<path fill="#FFFFFF" d="M402.6,358.7l76.7,52L449.2,471l-63-93.1L402.6,358.7z"/>
						<path fill="#102988" d="M209.6,527.1c61.6,82.2,160.2,135.6,269.7,135.6h8.2L460.1,571l-73.9-191.7
							C386.2,379.3,205.5,523,209.6,527.1z"/>
					</g>
					<path fill="#FFFFFF" d="M554.6,358.7l-75.3,52l30.1,60.2l63-93.1L554.6,358.7z"/>
					<path fill="#102988" d="M571.1,377.9l-73.9,191.7l-27.4,91.7h9.6c110.9,0,208.1-53.4,269.7-135.6
						C740.8,517.6,571.1,377.9,571.1,377.9z"/>
				</g>
				<path fill="none" d="M760,280.7c0,154.7-126,280.7-280.7,280.7S200,435.4,200,280.7S326,0,480.7,0S760,126,760,280.7L760,280.7z
					"/>
				<path fill="#102988" d="M528.6,179.4c-15.1,1.4-50.7,23.3-79.4,38.3c-54.8,28.8-104.1-17.8-128.7-38.3
					c61.6,5.5,69.8-110.9,167-95.8C580.6,97.2,551.9,176.6,528.6,179.4z"/>
			</g>
		</g>
	</g>
</g>
</svg>
