<svg id="layer" xmlns="http://www.w3.org/2000/svg" viewBox="0 0 236 104"><style>.st1{fill:#fff}</style><path class="st1" d="M8.4 93.4c-1.7 0-3.4.2-7.4 1l.3 1.6c2.7-.7 5.3-1.1 6.8-1.1 1.7 0 2.9 1 2.9 2.6 0 .7-.3 1.4-.7 2-.5.5-1.3 1-2.4 1.2-1.4.4-2.4.4-4.8.4l.7 1.6c2.3-.1 3.8-.4 5.1-.7 2.3-.7 3.8-2.4 3.8-4.5-.1-2.4-1.9-4.1-4.3-4.1zm21.8 2.7c-1.9 0-3.4.7-4.9 2.3.1-.7.2-2.8.2-4H24c0 2.4-.1 4.5-.4 6h1.3c.4-.6 1-1.1 1.8-1.7 1.1-.8 2.2-1.2 3.3-1.2.6 0 1.2.2 1.6.5.4.3.6.8.6 1.4 0 1.1-.8 2-2.2 2.3-.8.2-2 .3-3.2.3h-1.6l.6 1.5h.8c2 0 3.4-.2 4.6-.7 1.5-.6 2.4-1.9 2.4-3.4 0-.9-.3-1.7-.9-2.2-.5-.8-1.3-1.1-2.5-1.1zm1.6-3.3c-2-.5-4.2-.8-6.7-.8l-.5 1.3c3.2.1 5 .4 6.6.9l.6-1.4zm23.3 7.7c.3-.9.4-1.4.4-2.1 0-1.7-.8-3.4-2.1-4.2-.4-.3-.8-.4-1.4-.6l.1-.3c0-.1 0-.2.1-.3 0-.1.1-.4.2-.8l-1.4-.3c-.2.7-.2 1.1-.4 1.5-1.2 0-2.5.3-3.6.9v-.1c-.2-.8-.3-1.4-.4-1.9l-1.4.4c.2 1 .4 1.8.6 2.5-1.3 1.1-2 2.5-2 4.2 0 2.1 1.2 3.7 2.7 3.7.5 0 .9-.2 1.3-.4.7-.6 1.6-2 2.3-3.4.6-1.2 1.2-2.9 1.6-4.3 1.5.4 2.4 1.8 2.4 3.7 0 .4 0 .7-.1 1.2-.6-.4-1.3-.6-2-.6-1.2 0-2.1.9-2.1 2s.9 2 2.2 2c.7 0 1.3-.2 1.8-.6l.7-.7c.4.3.6.5.9.9l.9-1.2c-.5-.5-.7-.7-1.3-1.2zm-8.7 1c-.7 0-1.2-.9-1.2-2.2 0-1.1.3-1.9 1-2.7.4 1.4.7 2 1.5 3.8-.4.6-.9 1.1-1.3 1.1zm2.2-2.5c-.4-.7-.9-2.3-1.2-3.4.8-.5 1.8-.9 2.9-.9-.5 1.7-1.2 3.4-1.7 4.3zm4.8 2c-.5.6-.9.8-1.5.8-.5 0-.9-.3-.9-.7 0-.4.4-.7.9-.7s.7.1 1.5.6zm22.1-6.8l-.1-1.9v-.5h-1.5c.1 1.1.1 1.9.2 3-1.4.1-1.7.1-2.4.1-.6 0-1.1 0-2.7-.1v1.4h2.7c1.1 0 1.4 0 2.6-.1v.8c0 1-.1 2.1-.1 2.6-.2 1.1-.6 1.6-1.6 2.1-.7.4-1.3.5-2.8.6l.7 1.4c1.2-.2 1.9-.4 2.7-.8 1.2-.6 1.8-1.2 2.1-2.2.2-.6.4-2.1.4-3.6v-1c.8 0 1.2 0 2.3-.1v-1.5c-1.1.1-1.4.1-2.3.2l-.2-.4zM66.8 92c-.4 2.9-.6 5.3-.6 7.6 0 1.1 0 2.1.2 3.4l1.6-.1c-.2-1.2-.3-2.3-.3-3.9 0-2.4.3-5.2.8-6.9l-1.7-.1zm21.6 7.3l-1.2 1c1.4 1.4 2.1 2.2 3.2 3.7l1.3-1c-.9-1.2-2.1-2.6-3.3-3.7zm19.3-.2c-.5 1.2-1.7 2.2-3.5 3.1l1 1.2c1.4-.7 2.4-1.6 3.2-2.8.9-1.4 1-1.9 1.2-5.4V95h-1.5c.1 2.1 0 3.3-.4 4.1zM104 94h9.1c-.6 1.4-1.6 2.7-2.9 3.8l1.1 1c2-1.8 3.2-3.7 3.8-6.1v-.1H104V94zm28.8 4.8c-1.1 1.6-3.1 2.5-6.3 2.9l.9 1.5c2.8-.4 4.6-1.3 6-2.7 1.4-1.5 1.8-3 2.3-7.5v-.1l-1.6-.2c-.2 3.1-.6 5-1.3 6.1zm-3.9-1.7c-.5-1.3-1.3-3.2-2.1-4.4l-.1-.1-1.4.7.1.1c.8 1.3 1.5 2.9 2 4.4l1.5-.7zm26-3.2c-.3-.7-.6-1.4-1-1.9l-1 .3c.2.2.7 1.3.9 1.9l1.1-.3zm-.3-2c.3.4.6 1.2.9 1.8l1-.3c-.2-.5-.7-1.5-1-1.9l-.9.4zm-4.1 9.5c-1.2 0-2-.1-2.3-.2-.3-.1-.4-.3-.4-.7v-3.3c2-.1 6-.8 7.6-1.3l-.7-1.4c-1.9.6-4.5 1.1-7 1.3v-3.5h-1.5v9c0 .8.4 1.2 1.3 1.4.6.1 1.2.2 2.8.2 1.7 0 3.9-.1 5.6-.2h.1v-1.6h-.2c-1.8.2-3.7.3-5.3.3zm25-9c.1.2.2.4.3.7l.1.2 1-.3c-.2-.6-.3-.7-.8-1.6v-.2l-1 .3c.1.1.1.2.1.2.1.2.2.4.3.7zm2.3-1.4l-1 .3c.5.8.7 1.3.8 1.7l1-.3c-.2-.7-.2-.7-.8-1.7zm-10.4 3.7h8.1v6.2h-8.1v1.4h9.6v-9h-9.6v1.4zm21.1 0h8.1v6.2h-8.1v1.4h9.6v-9h-9.6v1.4zm21.4 7.6h9.2v-9.1h-9.2v9.1zm1.4-7.8h6.4v6.4h-6.4v-6.4zm21.3 4.7c-1.4 0-2.5 1.1-2.5 2.4 0 1.3 1.1 2.4 2.4 2.4 1.3 0 2.4-1.1 2.4-2.4.1-1.3-1-2.4-2.3-2.4zm0 3.8c-.8 0-1.4-.6-1.4-1.4 0-.8.6-1.4 1.4-1.4.8 0 1.4.6 1.4 1.4 0 .7-.7 1.4-1.4 1.4zM15.5 0l-5.2 9.2h10.3L15.5 0zm69.8 0l-5.2 9.2h10.3L85.3 0zM41.2 4H30.9v12.9H20.6v-5.2H10.3v5.2H0v10.3h10.3v15.5h10.3V27.2h10.2c-.5 12.7-2.7 25-6.3 36.6L34 68c4.2-12.9 6.7-26.6 7.2-40.8h10.4V16.9H41.2V4zm123.2 28.4c0 2.8 2.3 5.2 5.2 5.2 2.8 0 5.2-2.3 5.2-5.2s-2.3-5.2-5.2-5.2c-2.9 0-5.2 2.3-5.2 5.2zm66.4-5.2c-2.8 0-5.2 2.3-5.2 5.2s2.3 5.2 5.2 5.2c2.8 0 5.2-2.3 5.2-5.2s-2.3-5.2-5.2-5.2zM208 6.6h-10.3v57.2H208V37.5h15.2V27.2H208V6.6zm-51.4 41.8V37.5h5.2V27.2h-5.2V16.9h13.5V6.6h-36.7v10.3h12.9v10.3h-12.9v10.3h12.9v16c0 5.7 4.6 10.3 10.3 10.3h20.6V53.5h-15.5c-2.7 0-5.1-2.3-5.1-5.1zM90.4 16.9v-5.2H80v5.2H69.8v10.3H80c-.4 9.8-2 19.2-4.7 28.2l9.5 4.2c3.2-10.3 5.1-21.2 5.5-32.4h10.3c-.5 12.7-2.7 25-6.3 36.6l9.5 4.2c4.7-14.5 7.3-29.9 7.3-46 0-1.7 0-3.4-.1-5.2H90.4z"/></svg>