<svg xmlns="http://www.w3.org/2000/svg" viewBox="0 0 300 56"><path d="M172.146 7.64c0-1.714-.023-3.427.006-5.141.016-.935-.36-1.352-1.316-1.334-1.713.033-3.436.117-5.138-.028-1.61-.137-2.332.57-2.874 1.985-3.018 7.875-6.101 15.725-9.179 23.576-.268.684-.66 1.32-1.144 2.274-.364-.72-.564-1.047-.702-1.398-3.15-8.007-6.333-16.001-9.406-24.038-.652-1.705-1.449-2.654-3.433-2.404-1.462.184-2.968.08-4.45.019-1.152-.047-1.626.34-1.624 1.563.027 16.85.027 33.701-.002 50.551-.002 1.157.445 1.489 1.518 1.454 1.712-.055 3.433-.101 5.139.012 1.61.107 2.178-.396 2.16-2.098-.086-8.11-.043-16.222-.036-24.332.001-.636.077-1.272.118-1.908.44.164.564.333.638.522 2.531 6.533 5.075 13.062 7.566 19.61.413 1.086.915 1.713 2.203 1.661 1.246-.05 2.334.016 2.843-1.51.757-2.269 1.682-4.483 2.547-6.715 1.746-4.502 3.499-9.001 5.25-13.501l.568.092v1.971c-.001 8.111.028 16.222-.03 24.333-.01 1.418.422 1.95 1.846 1.87 1.651-.092 3.32-.122 4.966.007 1.606.126 2.005-.472 1.999-2.027-.055-15.021-.033-30.043-.033-45.066zM64.47 1.159c-1.654.048-3.311.004-4.966.011-2.139.008-2.202.064-2.203 2.226-.005 8.22.003 16.441-.007 24.661-.001.693-.107 1.385-.164 2.078l-.372.042c-.146-.274-.32-.538-.433-.825-2.942-7.472-5.935-14.925-8.797-22.428-2.185-5.729-2.111-5.758-8.113-5.759-.171 0-.346.023-.513-.004-1.75-.276-2.212.48-2.204 2.199.065 14.043.037 28.086.037 42.129 0 2.569.045 5.139-.019 7.706-.031 1.231.353 1.78 1.654 1.717 1.652-.079 3.315-.102 4.964.004 1.618.104 2.185-.445 2.169-2.125-.077-8.105-.039-16.212-.032-24.318 0-.639.073-1.279.113-1.918l.429-.067c.275.659.557 1.316.825 1.978 3.375 8.341 6.765 16.677 10.101 25.034.404 1.013.973 1.438 2.035 1.408 1.54-.045 3.082-.01 4.624-.012 2.358-.004 2.361-.005 2.361-2.364l-.002-47.267c0-.856-.038-1.714.008-2.568.057-1.086-.376-1.57-1.495-1.538zm167.341.232c-5.298-.239-10.613-.11-15.917-.255-1.593-.044-2.043.468-2.03 2.04.07 8.222.033 16.446.032 24.669-.001 8.394.019 16.789-.023 25.183-.006 1.225.291 1.721 1.619 1.705 5.367-.066 10.736.027 16.103-.045 6.005-.081 11.429-5.368 11.497-11.408.114-10.106.127-20.216.001-30.322-.079-6.256-5.012-11.284-11.282-11.567zm2.333 40.354c-.005 2.441-1.53 4.097-3.981 4.248-1.876.116-3.765.008-5.646.07-1.284.043-1.664-.534-1.655-1.756.043-5.42.019-10.841.017-16.261-.001-4.693.033-9.386-.007-14.079-.006-.67-.013-1.341-.022-2.011-.021-1.514.506-2.044 1.983-1.964 1.65.09 3.309-.005 4.963.028 2.855.058 4.342 1.516 4.348 4.337.019 9.129.018 18.259 0 27.388zM24.531 4.403C19.873.214 14.494-.577 8.76 1.676 3.292 3.824.025 9.005.025 14.966v13.182c0 4.736-.082 9.475.045 14.208.043 1.615.352 3.327.986 4.804 2.536 5.911 7.657 8.752 14.659 8.363 7.616-.424 13.407-6.523 13.412-14.139.005-8.788-.053-17.577.025-26.364.039-4.28-1.495-7.807-4.621-10.617zm-4.38 37.05c-.015 3.331-2.256 5.44-5.704 5.424-3.39-.016-5.536-2.041-5.55-5.397a3351.93 3351.93 0 0 1-.004-26.72c.013-3.337 2.34-5.566 5.645-5.57 3.439-.004 5.612 2.195 5.619 5.714.009 4.396.002 8.792.002 13.189-.002 4.454.013 8.907-.008 13.36zm277.66 3.237c-1.816-8.061-3.653-16.116-5.468-24.177a2818.971 2818.971 0 0 1-3.935-17.689c-.26-1.192-.822-1.73-2.11-1.679-2.222.089-4.451.034-6.676.02-.972-.006-1.576.286-1.805 1.371-.765 3.622-1.629 7.223-2.442 10.835a32075.356 32075.356 0 0 0-7.492 33.357c-.568 2.538-1.095 5.085-1.716 7.979 2.622 0 4.943-.094 7.251.034 1.509.084 2.165-.478 2.423-1.915.393-2.186.956-4.34 1.38-6.521.228-1.177.719-1.795 2.044-1.753 2.566.081 5.138.08 7.703-.002 1.144-.037 1.638.403 1.861 1.466a193.377 193.377 0 0 0 1.671 7.333c.119.474.559 1.227.872 1.237 2.811.097 5.627.057 8.629.057-.776-3.527-1.467-6.743-2.19-9.953zm-12.608-8.547c-1.482-.009-2.971.075-4.443-.053-.359-.031-1.001-.798-.938-1.111.879-4.351 1.853-8.683 2.824-13.015.068-.304.292-.574.608-1.172.751 3.419 1.436 6.516 2.109 9.616.314 1.446.563 2.907.917 4.343.247.996-.095 1.398-1.077 1.392zM98.357 1.133c-7.306.083-14.614.084-21.92 0-1.734-.02-2.102.655-2.091 2.217.014 2.055.023 4.11.028 6.165.015 6.165-.002 12.33-.002 18.495 0 8.334.007 16.669-.008 25.003-.002 1.081.099 1.898 1.518 1.892 7.706-.031 15.413-.027 23.119-.003 1.222.004 1.578-.567 1.543-1.692-.053-1.711-.109-3.432.014-5.135.117-1.622-.534-2.071-2.075-2.045-4.451.076-8.905-.006-13.357.043-1.244.014-1.728-.388-1.706-1.673.062-3.595.071-7.193-.002-10.788-.028-1.413.575-1.732 1.849-1.708 3.367.063 6.738-.057 10.102.055 1.627.054 2.117-.541 2.011-2.079a35.45 35.45 0 0 1-.003-4.621c.093-1.484-.447-2.036-1.956-1.999-3.309.082-6.623-.037-9.931.054-1.53.042-2.143-.386-2.082-2.017.116-3.078.102-6.166.003-9.245-.049-1.539.382-2.118 2.014-2.079 4.336.104 8.677-.027 13.014.066 1.673.036 2.241-.558 2.116-2.184a27.638 27.638 0 0 1 .001-4.448c.148-1.709-.441-2.294-2.199-2.274zm106.206.007c-7.306.064-14.614.08-21.92-.005-1.779-.021-2.209.603-2.193 2.285.019 2.041.03 4.081.037 6.122.02 6.122-.003 12.245-.003 18.367 0 8.334.006 16.669-.008 25.003-.002.989 0 1.808 1.371 1.802a4587.22 4587.22 0 0 1 23.462-.01c.949.001 1.33-.425 1.315-1.354-.026-1.655.001-3.311-.005-4.966-.008-2.299-.034-2.327-2.266-2.329-4.338-.003-8.677-.034-13.015.019-1.311.016-1.847-.414-1.823-1.774.062-3.538.062-7.079.002-10.617-.023-1.349.486-1.798 1.812-1.774 3.481.064 6.964-.019 10.446.038 1.255.021 1.757-.409 1.704-1.683a55.68 55.68 0 0 1 .002-5.136c.073-1.444-.527-1.89-1.915-1.861-3.367.069-6.737-.038-10.103.049-1.524.039-1.991-.535-1.952-2.002.081-3.08.088-6.166-.005-9.246-.047-1.548.433-2.121 2.042-2.089 4.451.091 8.905.008 13.357.047 1.23.011 1.778-.419 1.732-1.694-.062-1.71-.098-3.43.01-5.136.099-1.595-.527-2.07-2.084-2.056zm55.447 2.055c.014-1.61-.526-2.131-2.07-2.047-1.764.096-3.538.066-5.305.008-1.223-.04-1.747.395-1.746 1.676.023 16.776.023 33.553-.003 50.329-.002 1.231.514 1.587 1.647 1.557 1.882-.05 3.769-.085 5.647.013 1.453.075 1.832-.505 1.823-1.892a1626.61 1626.61 0 0 1-.027-6.248c-.015-6.248 0-12.497 0-18.745 0-6.163-.022-12.326-.002-18.488.006-2.055.018-4.109.036-6.163zM112.334 43.942c-3.182.049-5.673 2.621-5.678 5.863-.005 3.298 2.418 5.714 5.736 5.72 3.247.006 5.793-2.47 5.843-5.681.049-3.121-2.779-5.949-5.901-5.902z" fill="#888"/></svg>