<svg xmlns="http://www.w3.org/2000/svg" viewBox="0 0 128 34.8"><defs><style>.cls-1{fill:#fff;}</style></defs><title>アセット 2</title><g id="レイヤー_2" data-name="レイヤー 2"><g id="レイヤー_1-2" data-name="レイヤー 1"><path class="cls-1" d="M11.1,17.4h0a5.92,5.92,0,0,0-1.8-1.7h0a2.18,2.18,0,0,1-.5-.4V13.4a11,11,0,0,0,1.1-.3c1.2-.3,1.5-.9,1.5-1.4a1.61,1.61,0,0,0-.5-1.1h0a1.43,1.43,0,0,0-1-.4,2.24,2.24,0,0,0-1,.3V4.4c0-.1.1-.8.1-.8A1.78,1.78,0,0,0,7.9,2,2.72,2.72,0,0,0,6,1.7s-.5.1-.8.2-.5.3-.5.5.5.5.6.6l.4.4a3.9,3.9,0,0,1,.7,2.5v5.6c-.6.2-1.6.4-1.6.4a5.5,5.5,0,0,1-1.6.3,3.08,3.08,0,0,1-1-.1,1.24,1.24,0,0,0-.3-.2.77.77,0,0,1-.1-.3c-.3,0-.7.8-.4,1.8a1.64,1.64,0,0,0,.7,1.2c.7.6,1.1.8,1.5.8a2.61,2.61,0,0,0,1.1-.3h.1s.2-.1.9-.4a36.46,36.46,0,0,1-1.4,3.5A55.85,55.85,0,0,1,.8,24.7l-.1.2-.7.4c0,.6.6.5,1.1.5h.3c.4-.1.6-.2,1.5-1.2a31.22,31.22,0,0,0,2.7-3.8c.2-.3.4-.7.6-1v2.6c0,2.5,0,4.5-.1,6L6,30.5a10.61,10.61,0,0,0,.2,2.1c.1.4.3,1.5,1.2,1.5,1.4,0,1.4-2.2,1.4-3.2V19.3a2.19,2.19,0,0,0,.3.5c.3.6.7,1.2,1.4,1.2.3,0,1.1-.2,1.1-1.7a4.78,4.78,0,0,0-.5-1.9Zm-9.3-3ZM7.7,2h0l.1.1Zm8.1,11.6A24.45,24.45,0,0,0,18.2,9c.1-.2.1-.4.2-.5V8.3a1.85,1.85,0,0,0,.2-.7,2.91,2.91,0,0,0-.8-1.7A2.4,2.4,0,0,0,16.2,5c-.1,0-.6-.1-.7-.1-.4,0-.5,0-.5.4,0,.2.1.8.3.9,0,.1.1.2.2.3V6.4a1.88,1.88,0,0,1,.2.8,7.88,7.88,0,0,1-.5,2.1,23.35,23.35,0,0,1-2.1,4.9l-.1.2v.2a.88.88,0,0,0,.8.9C14.3,15.5,14.7,15.2,15.8,13.6Zm9.9,10.5c-1.1-1.4-1.4-1.6-1.8-1.6a.82.82,0,0,0-.8.9v.2l.1.2c.4.8.8,1.6,1.2,2.6-1.4.4-3.2.9-5.1,1.3,0,0-1.2.3-2.2.5.5-1.1,2.6-5.4,2.6-5.4a11.42,11.42,0,0,1,.9-1.6h0a2.3,2.3,0,0,0,.3-.9v-.1a5.61,5.61,0,0,0-.8-2.1c-.5-1-.9-1.6-1.6-1.6h-.4s-1.4.2-1.5.5.8.7.8.7l.1.2c.1.3.1.6.2.9h0a7.64,7.64,0,0,1-.4,2l-.1.3a44.82,44.82,0,0,1-2.6,7.2,1.09,1.09,0,0,1-.2.4h.1a.94.94,0,0,0-1,1c0,.2,0,.4.5,1.5s.8,1.5,1.4,1.5a1.15,1.15,0,0,0,.9-.6c.2-.3.4-.3.4-.3h.2c1.1-.5,2.8-1.1,4.6-1.7a37.31,37.31,0,0,0,4-1.4c.3,1,.6,1.9.9,2.8.1.4.3,1.5,1.2,1.5s1.3-.8,1.3-2.3a7.37,7.37,0,0,0-.6-2.7C27.5,26.8,26.7,25.5,25.7,24.1ZM30,13.4h0a13.11,13.11,0,0,1-2.7-2.5A49.8,49.8,0,0,1,24.2,6a6.27,6.27,0,0,0-1.5-1.9c-.2-.2-.5-.2-1.2-.2L20.4,4c-.4,0-.7.4-.2.7a1.47,1.47,0,0,1,.6.5,2.22,2.22,0,0,0,.5.4l.1.1A4.6,4.6,0,0,1,22.2,7c2.5,6.1,3.2,7.3,3.5,7.6l-.1-.1c.4.7,1.4.7,1.8.7,2.5,0,3.3,0,3.3-.9C30.6,13.9,30.3,13.7,30,13.4Z"/><path class="cls-1" d="M36.2,18.7l.8.3c.5,0,1.2,0,2.4-1.6a30.42,30.42,0,0,0,2.2-4.1,1.61,1.61,0,0,0,.9.3h.1a11.11,11.11,0,0,1,.3,3.3v9.5a32.25,32.25,0,0,1-.1,3.4l-.1,1.3a9.2,9.2,0,0,0,.2,1.9c.2.9.6,1.4,1.2,1.4,1.2,0,1.2-1.9,1.2-2.9V17.8l.1-1.9s.1-1.3.1-1.4v-.6a1.34,1.34,0,0,0-.2-.8,11.2,11.2,0,0,1,2.2-.3h0a3,3,0,0,0,1-.4h0a1.73,1.73,0,0,0,.5-1.3,1.86,1.86,0,0,0-.7-1.3h0a3.09,3.09,0,0,0-1-.5,1.86,1.86,0,0,0-1.1.4h0a8.12,8.12,0,0,1-2.5.8,7.84,7.84,0,0,1-1.4.2,26.56,26.56,0,0,0,.9-3.2l.7-2.7v.1l.1-.6a2.41,2.41,0,0,0-.9-1.6A2.14,2.14,0,0,0,41.3,2s-1.2-.1-1.4.2.6.8.8.9a3,3,0,0,1,.2,1,3.75,3.75,0,0,1-.1,1c-.4,2-.8,3.8-1.1,5.1a19.66,19.66,0,0,1-1.3,3.9,18.7,18.7,0,0,1-2,4Zm6.7,14.1Z"/><path class="cls-1" d="M53.8,1.3c.1.1.1.3.2.4V1.6a1.8,1.8,0,0,1,.2,1,27.28,27.28,0,0,1-.9,4.3,54.63,54.63,0,0,1-3.6,9.8l-.1.2-.6.8a2.33,2.33,0,0,0,1.4.1c.5-.1,1-.1,2.8-3.6a16.87,16.87,0,0,0,1.2-2.7,3.55,3.55,0,0,0,.9.4,5.13,5.13,0,0,0,1-.1,6.25,6.25,0,0,1,.4,2.5V29.7a5.94,5.94,0,0,1-1.2-.5l-1.1-.4c-.3-.1-1.3,0-1.3.5l.7.7.2.2a22.73,22.73,0,0,1,2.3,3.3c.3.6.7,1.3,1.5,1.3s1-.7,1.3-1.4a8.12,8.12,0,0,0,.4-2.9V13.2h0l-.1-1.1a1.27,1.27,0,0,0-.1-.6,24.62,24.62,0,0,1,2.6-.2,2.23,2.23,0,0,0,1.3-.4,1.75,1.75,0,0,0,.7-1.4,1.84,1.84,0,0,0-.8-1.4c-.5-.4-.8-.6-1.1-.6a1.79,1.79,0,0,0-1.3.4l.1-.1a8.86,8.86,0,0,1-3.1.9q-1.2.15-2.1.3a34,34,0,0,0,1.2-3.8h0A8.34,8.34,0,0,1,57.2,4a2.28,2.28,0,0,0,.3-1.1A3,3,0,0,0,56.6,1a2.76,2.76,0,0,0-1.8-1H53.7C53.2.1,53.6,1.1,53.8,1.3Z"/><path class="cls-1" d="M91.8,28.8a21.64,21.64,0,0,0-1.9-3.1c-1.2-1.6-1.5-1.8-1.8-1.9a.87.87,0,0,0-1,.7v.2l.1.2a18.26,18.26,0,0,1,1.4,3.5,51.57,51.57,0,0,1-8.2,1.1,36.34,36.34,0,0,0-3.9.4,2,2,0,0,1,.5-.5,27.08,27.08,0,0,0,3.6-4.9,2.11,2.11,0,0,0,.4-1.1,3.92,3.92,0,0,0-.3-1.3c3.5-.4,9.1-.9,11.1-.9l1,.1.8.1a1.16,1.16,0,0,0,1.2-1.2,2.73,2.73,0,0,0-.7-1.5l-.1-.1-.1-.1c-.6-.4-.9-.6-1.2-.6L92,18h.1l-1.6.2c-5.3.4-11.4,1.1-15.2,1.5-.4,0-.9.1-1.4.1s-.9.1-1.2-.1-.5-.7-.5-.7-.7.5-.7,1a3.5,3.5,0,0,0,.3,1.2l.4.6.5.4a2.21,2.21,0,0,0,1.5.8l.8-.1h0c1-.2,1.9-.4,2.8-.5a7.07,7.07,0,0,1-.5,1.6,14.2,14.2,0,0,1-1,2.1l-.6,1.1a10.84,10.84,0,0,1-1.6,2.6h0c-.2.2-.9.6-.9,1.3a4.29,4.29,0,0,0,.6,1.7c.5,1,.9,1.5,1.4,1.4a1.45,1.45,0,0,0,1-.7h0a1.76,1.76,0,0,1,.5-.4,84.14,84.14,0,0,1,10.7-2.4s1.1-.2,1.8-.3a12.21,12.21,0,0,1,.6,2.6c.1.4.2,1.5,1.1,1.6a1,1,0,0,0,.9-.2,2.53,2.53,0,0,0,.8-1.8V32a5.45,5.45,0,0,0-.5-2.2,6.89,6.89,0,0,1-.3-.8Z"/><path class="cls-1" d="M87.9.6a3.69,3.69,0,0,0-1.3.2c-.3.2.6.5.9,1.7a.44.44,0,0,1,.1.3A18.92,18.92,0,0,1,87.4,5c-1.3.1-3.3.4-5.2.7,0,0-1.7.2-2.6.4A8,8,0,0,0,79.5,5l-.1-1.7V3.2a1.17,1.17,0,0,0-.9-1,4,4,0,0,0-1.4-.3h-.7s-1,.1-1.2.4.7.3,1.3,1.5a4.05,4.05,0,0,1,.3,1s.1.8.2,1.5a2.81,2.81,0,0,0-.8.1h0a4.12,4.12,0,0,1-1.2.1,7.84,7.84,0,0,1-1.4-.2s-.7-.2-.8-.1-.2.5-.2.5l.3.6a9.57,9.57,0,0,0,.9,1.6c.6.6,1,.8,1.3.8l.8-.1h0a9.64,9.64,0,0,1,1.2-.2h.3c.1.6.2,1.4.2,1.4.2,1.4.8,1.7,1.3,1.7,1,0,1-1.2,1.1-1.6h0c0-.2,0-.6-.1-1.9l2.2-.3c1.7-.3,3.8-.6,5.1-.8-.1.8-.2,1.9-.2,1.9h0q0,1.5.9,1.5c1.1,0,1.4-1.6,1.6-2.3,0,0,.1-.8.2-1.4.2,0,.6-.1.8,0h.9s.7.1.8.1a2.49,2.49,0,0,0,.8.1,1.16,1.16,0,0,0,1.2-1.2,2.27,2.27,0,0,0-.7-1.4l-.1-.1L93.3,5c-.6-.4-.9-.6-1.2-.6h-.5a5.9,5.9,0,0,1-1.4.2h-.1c.1-.6.2-1.1.2-1.1l.2-.7h0l.1-.7a1.66,1.66,0,0,0-1-1.3h0A3.77,3.77,0,0,0,88.4.4h-.5V.6Z"/><path class="cls-1" d="M89.6,12.7l.1-.1s-.1.1-.6.1c-4.4.6-12,1.1-12.8,1.1a2.27,2.27,0,0,1-1.3-.3l-.2-.2-.3-.5c-.4,0-.9.7-.9,1.9,0,.4.2.7.7,1.3s1,1,1.5,1a11.48,11.48,0,0,0,1.4-.2c1.8-.3,6.9-.7,10.7-1l3-.3h-.1c1.2,0,1.5-.6,1.5-1.3,0-.4-.5-.8-.9-1.2s-.6-.7-1.1-.7C90.2,12.4,89.9,12.5,89.6,12.7Z"/><path class="cls-1" d="M108.8.6a1.57,1.57,0,0,0-.9.1c-.3.1.4.8.4,1.1s.1.3.1.4-.1.4-.1.7a51.81,51.81,0,0,1-2.6,6.5c-.1.1-.1.1-.2.1h.1a1.11,1.11,0,0,0-.9,1.1,4.94,4.94,0,0,0,.3,1.5c.1.4.4,1.2,1.1,1.2a1.22,1.22,0,0,0,.9-.4,1.88,1.88,0,0,1,.9-.4c1.2-.4,2.8-.9,4.6-1.4a1.75,1.75,0,0,1,.1.5c.1.6.3,1.6,1.1,1.6.3,0,1.1,0,1.3-1.4a4.44,4.44,0,0,0-.1-2,5.92,5.92,0,0,0-1.3-2.3l.1.1a3,3,0,0,0-1.9-1.3c-.5-.2-.9-.3-.9.2l.3.8.1.2c.2.5.4,1.1.6,1.6-.8.1-1.9.3-1.9.3-.7.1-1.3.2-1.9.3.9-1.5,1.7-3,2.4-4.3a4.35,4.35,0,0,1,.4-.7h0V4.6a1.6,1.6,0,0,0,.3-.8,4.11,4.11,0,0,0-.5-1.6A2.33,2.33,0,0,0,109.5,1Z"/><path class="cls-1" d="M114.6,17.1a1.71,1.71,0,0,0-.7-1.3c-.5-.5-.9-.8-1.3-.8l-.5.2-.2.1s-.5.2-.5.3-2.7.6-3.3.7a3.21,3.21,0,0,0-.5-.3,2.18,2.18,0,0,0-1-.4H106a1.4,1.4,0,0,0-.9.3s.5.8.7,1.1a6.47,6.47,0,0,1,.4,2v9.6a12.1,12.1,0,0,1-.1,1.9l-.1,1.1a4.67,4.67,0,0,0,.3,1.7c.1.3.4,1,1.1,1,1.2,0,1.2-1.8,1.2-2.8V28.3c1.2-.2,2.4-.4,3.6-.5v2.6a3,3,0,0,1-1.1-.3l-.4-.2c-.5-.1-1.2-.4-1.2.1a4,4,0,0,0,.9,1.5,16.41,16.41,0,0,1,1.3,1.9,1.24,1.24,0,0,0,1.2,1c.8,0,1.2-1,1.3-1.5a6.8,6.8,0,0,0,.4-2.1V20.4a12.84,12.84,0,0,1,.1-2.2A2.23,2.23,0,0,1,114.6,17.1ZM112,25c-1.2.1-2.4.3-3.6.5V23.4c1.2-.2,2.4-.4,3.6-.5Zm0-4.7c-1.2.1-2.4.3-3.6.5V18.7a21.91,21.91,0,0,1,3.6-.8v2.4Z"/><path class="cls-1" d="M124.3,15.9a10.81,10.81,0,0,0,2.1-.5c1.1-.4,1.3-1,1.3-1.5a1.61,1.61,0,0,0-.3-.9,3.87,3.87,0,0,1-.3-1.1l-.2-1a5.63,5.63,0,0,0-1.2-2.8c-.3,0-.2.7-.3,1.6l-.2,1.7c-.2,1.2-.5,1.5-.6,1.6a7.22,7.22,0,0,1-3.1.4,1.55,1.55,0,0,1-.8-.2h0a4.43,4.43,0,0,1-.2-1.7V10a6.89,6.89,0,0,0,1-.4,34.4,34.4,0,0,0,3.9-2.1l.8-.4a1.13,1.13,0,0,0,.8-1,2.06,2.06,0,0,0-.7-1.4A4.88,4.88,0,0,0,125,3.6c-.1-.1-.2-.1-.4-.1,0,0-.7-.3-.9-.1s.1.8.1.8a1.34,1.34,0,0,1,.1.5v.4s0,.2-.5.7A20.93,20.93,0,0,1,120.6,8c0-1.2.1-2.9.1-2.9l.1-.7v.1l.1-.7c0-.4-.3-.9-1-1.4a3.29,3.29,0,0,0-1.2-.6h-.5s-.6-.1-.7.1.1.6.1.6l.1.3a1.54,1.54,0,0,0,.3.7,6.37,6.37,0,0,1,.2.7,9.72,9.72,0,0,1,.1,1.8v4.9a17,17,0,0,0,.2,2.8,3.17,3.17,0,0,0,1,1.8h0a4.4,4.4,0,0,0,2.5.6,17.85,17.85,0,0,0,2.3-.2m-.4-11.6Zm-4.1-2.1Z"/><path class="cls-1" d="M117.4,18.5c-.2.2.3,1,.3,1a8.8,8.8,0,0,1,.5,1.5,8.12,8.12,0,0,1,.1,1.7l-.1,4.5a37.42,37.42,0,0,0,.2,4,3.45,3.45,0,0,0,1,2.1h0a4.37,4.37,0,0,0,2.5.7,12.25,12.25,0,0,0,4.8-.8,1.75,1.75,0,0,0,1.3-1.7,3.09,3.09,0,0,0-.2-.8,3.09,3.09,0,0,1-.2-1.3l-.2-1.2c-.5-1.9-1.1-2.9-1.3-2.9s-.1,1.3-.1,1.6l-.2,1.9c-.2,1.2-.5,1.6-.7,1.7a10.85,10.85,0,0,1-3.6.4c-.4,0-.6-.1-.6-.2l-.1-.1a7.23,7.23,0,0,1-.2-2.4l.1-.9v-.4a1,1,0,0,0,.3-.1l.9-.3c.7-.2,1.4-.5,2-.7a26,26,0,0,0,2.9-1.7l.4-.2-.1.1a.84.84,0,0,0,.6-.8,3.2,3.2,0,0,0-.8-1.7,4.81,4.81,0,0,0-.9-1h0l-.4-.3s-.6-.4-.8-.3a1.15,1.15,0,0,0,0,.6,2.55,2.55,0,0,1,0,.9l-.2.6c0,.1-.2.2-.5.5-.5.4-1.1.8-1.7,1.2l-.8.5c-.3.2-.6.3-.9.5,0-1.2.1-3,.1-3a1.48,1.48,0,0,1,.1-.7l.1-.6c0-.4-.3-.9-1-1.4a2.2,2.2,0,0,0-1.2-.6C118.7,18.6,117.5,18.3,117.4,18.5Zm2.4,13.3Zm6.9,1.5Z"/></g></g></svg>