<svg xmlns="http://www.w3.org/2000/svg" viewBox="0 0 50.4 50.4"><defs><style>.cls-1{fill:#fff;}</style></defs><title>アセット 1</title><g id="レイヤー_2" data-name="レイヤー 2"><g id="レイヤー_1-2" data-name="レイヤー 1"><path class="cls-1" d="M12.7,32.3h0c1.8-1.3,3.5-2.5,4.9-3.3a11.33,11.33,0,0,1,4.8-2.2v-.3s-4.2-.6-6.8,1a23.09,23.09,0,0,0-6.9,7.1,41,41,0,0,0,6.4-1.5,16.94,16.94,0,0,1,1.3-2.7A31.46,31.46,0,0,1,12.7,32.3Z"/><path class="cls-1" d="M19.7,32.1c-.8.8-1.7,1.8-2.7,2.7h0c1.1-1.8,2.2-3.3,3.1-4.5a7.45,7.45,0,0,1,3.4-3,.77.77,0,0,1-.1-.3s-4.2.5-5.9,2.6a15.64,15.64,0,0,0-3,8.4,26.73,26.73,0,0,0,5.3-3C19.7,34,19.7,33,19.7,32.1Z"/><path class="cls-1" d="M38.9,18.2c-2.2.1-3.9,1.3-5.4,0a12.33,12.33,0,0,0-8.3-2.9,12.13,12.13,0,0,0-8.3,2.9c-1.5,1.3-3.2.1-5.4,0s-9,.9-7.8,6.5S12.2,28,14.6,27a26.31,26.31,0,0,1,10.7-2.7c4.6,0,8.3,1.7,10.7,2.7s9.7,3.2,10.9-2.3C47.9,19.1,41.1,18.1,38.9,18.2ZM17.7,24.4c-.2.1-1.4-1.9-1.7-2.8s-.3-1.6.1-1.8h0c.5-.1.9.5,1.2,1.4A8.29,8.29,0,0,1,17.7,24.4ZM25.2,23a10.69,10.69,0,0,1-.8-3.6c0-1,.2-1.8.8-1.9h0c.6,0,.7.9.8,1.9A10.69,10.69,0,0,1,25.2,23Zm9.1-1.4c-.3.9-1.4,2.9-1.6,2.8a7.81,7.81,0,0,1,.3-3.2c.3-.8.7-1.5,1.2-1.4h0C34.6,20,34.5,20.7,34.3,21.6Z"/><path class="cls-1" d="M37.6,32.2c-1.4-.6-2.6-1.3-3.7-1.9A16.94,16.94,0,0,1,35.2,33a26.79,26.79,0,0,0,6.3,1.5,20.69,20.69,0,0,0-6.8-7.1c-2.6-1.6-6.8-1-6.8-1v.3a11,11,0,0,1,4.8,2.1C34.1,29.7,35.8,30.9,37.6,32.2Z"/><path class="cls-1" d="M22.4,36.2a40.46,40.46,0,0,1,.8-5,5.8,5.8,0,0,1,1.7-3.5l-.3-.3s-3.7,1.5-4.3,3.9a14.75,14.75,0,0,0,1.1,8.6,21.28,21.28,0,0,0,3.5-4.1,14,14,0,0,1-1.4-2.7A16.68,16.68,0,0,1,22.4,36.2Z"/><path class="cls-1" d="M32.9,29.6C31.2,27.5,27,27,27,27a1.09,1.09,0,0,0-.2.4,7.18,7.18,0,0,1,3.3,3,42.49,42.49,0,0,1,3.1,4.5h0a31.85,31.85,0,0,1-2.6-2.7,14,14,0,0,1,0,2.9,26.26,26.26,0,0,0,5.2,3C36,35.9,34.6,31.7,32.9,29.6Z"/><path class="cls-1" d="M30.1,31.2c-.6-2.4-4.3-3.9-4.3-3.9S23,29.6,23.6,32a18.51,18.51,0,0,0,5.2,7.8A14.05,14.05,0,0,0,30.1,31.2Zm-3.9-2.4c.7.5,1.5,3.6,1.8,7.4C26.5,32.6,25.8,29.5,26.2,28.8Z"/><path class="cls-1" d="M0,25.2A25.2,25.2,0,1,0,25.2,0,25.22,25.22,0,0,0,0,25.2Zm1.6,0A23.7,23.7,0,1,1,25.3,48.9,23.69,23.69,0,0,1,1.6,25.2Z"/><circle class="cls-1" cx="32.2" cy="39.4" r="1.1"/><circle class="cls-1" cx="18.2" cy="39.4" r="1.1"/></g></g></svg>