<?xml version="1.0" encoding="utf-8"?>
<!-- Generator: Adobe Illustrator 23.0.0, SVG Export Plug-In . SVG Version: 6.00 Build 0)  -->
<svg version="1.1" id="レイヤー_1" xmlns="http://www.w3.org/2000/svg" xmlns:xlink="http://www.w3.org/1999/xlink" x="0px"
	 y="0px" viewBox="0 0 82 17" style="enable-background:new 0 0 82 17;" xml:space="preserve">
<style type="text/css">
	.st0{fill:#222222;}
</style>
<g>
	<g>
		<polygon class="st0" points="79.2,0.5 76.1,8 73.1,0.5 70,0.5 74.8,11.1 72.3,17 74.9,17 82,0.5 		"/>
		<path class="st0" d="M12.7,0.4C11.1,0.4,10,1,9,2.2C7.9,1,6.7,0.4,5.1,0.4C2.1,0.4,0,2.7,0,5.7v6.6h2.7V5.4c0-1.5,0.9-2.6,2.4-2.6
			c1.5,0,2.5,1.1,2.5,2.6v6.9h2.7V5.4c0-1.5,0.9-2.6,2.4-2.6c1.5,0,2.5,1.1,2.5,2.6v6.9H18V5.7C18,2.7,15.8,0.4,12.7,0.4z"/>
		<path class="st0" d="M39.8,2.9c-1.5,0-2.4,1.2-2.4,2.9v6.5h-2.7V5.7c0-3,2.1-5.3,5.1-5.3h1v2.5L39.8,2.9z"/>
		<path class="st0" d="M26.4,0.4c-3.7,0-5.9,3-5.9,6c0,3.7,2.7,6,6.4,6c2.4,0,4.3-0.8,4.3-0.8V9.2c0,0-2.2,0.9-4.2,0.9
			c-2.1,0-3.5-0.9-3.8-2.7h8.3c0,0,0.1-0.5,0.1-1.3C31.7,2.7,29.2,0.4,26.4,0.4z M23.3,5.2c0.4-2,1.9-2.5,3-2.5c1.2,0,2.7,0.8,3,2.5
			H23.3z"/>
		<path class="st0" d="M62.6,0.4c-3.5,0-6.1,2.5-6.1,6c0,3.5,2.4,6,5.8,6c1.6,0,3-0.9,3.5-2v1.9h2.7V6.4C68.5,2.7,66.2,0.4,62.6,0.4
			z M62.6,10c-2,0-3.3-1.4-3.3-3.6c0-2,1.4-3.6,3.3-3.6c2,0,3.2,1.4,3.2,3.6C65.8,8.1,64.7,10,62.6,10z"/>
		<path class="st0" d="M42.5,6.4V17h2.7v-6.7c0.4,1.1,1.8,2,3.5,2c3.4,0,5.8-2.5,5.8-6c0-3.5-2.5-6-6.1-6
			C44.8,0.4,42.5,2.7,42.5,6.4z M45.3,6.4c0-2.2,1.2-3.6,3.2-3.6c1.9,0,3.3,1.5,3.3,3.6c0,2.2-1.3,3.6-3.3,3.6
			C46.3,10,45.3,8.1,45.3,6.4z"/>
	</g>
</g>
</svg>
