<svg xmlns="http://www.w3.org/2000/svg" viewBox="0 0 485.84 86.02"><title>logo</title><g id="レイヤー_2" data-name="レイヤー 2"><g id="レイヤー_1-2" data-name="レイヤー 1"><g id="layout"><path d="M85.77.49A1.51,1.51,0,0,0,84.63,0H52.1C32.85,0,20.91,7.76,18.48,22.09c-1.08,6.4-.06,11.79,3,16,3.91,5.38,11.1,9,21.38,10.54l4.39.75C58.92,51.11,63,54.31,62,60.84,61,68.1,54.16,72.26,43,72.26H.57a.48.48,0,0,0-.47.4l-.1.75a.47.47,0,0,0,.39.52c1.57.22,9.33,1.73,8.47,9.34L8.68,84.5a1.33,1.33,0,0,0,.3,1,1.43,1.43,0,0,0,1.11.47H40.76C62.32,86,76.65,77,78.87,62c1-7.19-.73-13.05-5-17.43s-11.45-7.41-21.15-8.82L48.33,35C37.72,33.36,34.11,30.19,35,23.64c1.28-9.08,11.76-9.91,16.2-9.91H82.72a1.8,1.8,0,0,0,1.78-1.44L86,1.49A1.15,1.15,0,0,0,85.77.49Z"/><path d="M167.43.47A1.49,1.49,0,0,0,166.25,0H98.32A1.73,1.73,0,0,0,96.5,1.46L95,12.28a1.25,1.25,0,0,0,.28,1.06,1.49,1.49,0,0,0,1.18.47h24.87c.15,0,.36,0,.44.13a.48.48,0,0,1,.06.36L112,84.48a1.3,1.3,0,0,0,.28,1.07,1.49,1.49,0,0,0,1.18.47h13.7a1.72,1.72,0,0,0,1.81-1.46l9.87-70.18c0-.39.26-.55.71-.55h24.87a1.73,1.73,0,0,0,1.82-1.46l1.52-10.82A1.31,1.31,0,0,0,167.43.47Z"/><path d="M251.84,26.22a22.75,22.75,0,0,0-5.62-17.86C241.29,2.87,233.65,0,224.71,0H175.92a.48.48,0,0,0-.47.4l-.13.88a.46.46,0,0,0,.39.52c1.76.26,10.54,1.94,9.44,10.62L175,84.48a1.26,1.26,0,0,0,.27,1.07,1.5,1.5,0,0,0,1.19.47h13.7A1.73,1.73,0,0,0,192,84.56L196.58,52c0-.39.26-.55.71-.55h16.07l14,33.17A1.92,1.92,0,0,0,229.5,86h14.17a1.59,1.59,0,0,0,1.4-.69,1.3,1.3,0,0,0,0-1.28L230.41,49.46C242,46.54,250.65,37.15,251.84,26.22Zm-17,.1c-1,7-7.1,11.3-16,11.3h-19.7c-.14,0-.35,0-.43-.13a.48.48,0,0,1-.07-.36l3.21-22.77c.05-.38.26-.55.71-.55h19.69c4.41,0,8.08,1.43,10.33,4A10.37,10.37,0,0,1,234.86,26.32Z"/><path d="M485.53.47A1.49,1.49,0,0,0,484.35,0h-71a.48.48,0,0,0-.46.4l-.1.75a.46.46,0,0,0,.39.52c1.6.22,9.54,1.78,8.43,9.65L411.33,84.48a1.27,1.27,0,0,0,.28,1.07,1.49,1.49,0,0,0,1.18.47h59.54a1.73,1.73,0,0,0,1.82-1.46l1.52-10.81a1.26,1.26,0,0,0-.28-1.06,1.52,1.52,0,0,0-1.18-.46H430.6a.61.61,0,0,1-.44-.13.48.48,0,0,1-.06-.36l3-21.64c.05-.38.26-.55.72-.55H467a1.73,1.73,0,0,0,1.82-1.45l1.52-10.82a1.28,1.28,0,0,0-.28-1.07,1.49,1.49,0,0,0-1.18-.47H435.74c-.15,0-.36,0-.44-.13s-.08-.19-.07-.36l2.93-20.89c0-.38.26-.55.72-.55h43.61a1.73,1.73,0,0,0,1.81-1.45l1.52-10.82A1.34,1.34,0,0,0,485.53.47Z"/><path d="M404.06.58a1.29,1.29,0,0,0-1.2-.56H375.17a.49.49,0,0,0-.47.4l-.1.75a.5.5,0,0,0,.1.35.47.47,0,0,0,.31.18c.21,0,5,.65,6.7,3.58a5.18,5.18,0,0,1,0,4.79L356.51,60.52a.29.29,0,0,1-.55-.07L342.85,1.57A1.68,1.68,0,0,0,341,0H327.22a1.56,1.56,0,0,0-1.28.48,1.58,1.58,0,0,0-.23,1.2l18.35,82.88A1.69,1.69,0,0,0,345.79,86h14.43a2.3,2.3,0,0,0,2.08-1.39L404.08,1.78A1.29,1.29,0,0,0,404.06.58Z"/><path d="M315.45.6a1.41,1.41,0,0,0-1.27-.6H299.41a2.08,2.08,0,0,0-1.86,1.15L255.74,84a1.36,1.36,0,0,0,0,1.39A1.38,1.38,0,0,0,257,86h14.77a2,2,0,0,0,1.86-1.15L315.4,2A1.36,1.36,0,0,0,315.45.6Z"/></g></g></g></svg>