<?xml version="1.0" encoding="utf-8"?>
<!-- Generator: Adobe Illustrator 23.0.0, SVG Export Plug-In . SVG Version: 6.00 Build 0)  -->
<svg version="1.1" id="iconmonstr" xmlns="http://www.w3.org/2000/svg" xmlns:xlink="http://www.w3.org/1999/xlink" x="0px" y="0px"
	 viewBox="0 0 80 80" style="enable-background:new 0 0 80 80;" xml:space="preserve">
<style type="text/css">
	svg{fill:#d1181b;}
</style>
<path d="M69.41,60.32c-11.46-2.65-22.14-4.96-16.97-14.73C68.17,15.89,56.61,0,40,0C23.06,0,11.79,16.5,27.56,45.59
	c5.32,9.82-5.75,12.14-16.97,14.73C0.66,62.61,0,67.46,0,75.87c0,1.29,0.02,2.67,0.02,4.13h33.94l2.35-12h7.38l2.35,12h33.94
	c0-1.47,0.02-2.84,0.02-4.13C80,67.46,79.34,62.61,69.41,60.32z M42.97,64.67h-5.88L34.06,58h11.98L42.97,64.67z"/>
</svg>
