<?xml version="1.0" encoding="utf-8"?>
<!-- Generator: Adobe Illustrator 23.0.0, SVG Export Plug-In . SVG Version: 6.00 Build 0)  -->
<svg version="1.1" id="レイヤー_1" xmlns="http://www.w3.org/2000/svg" xmlns:xlink="http://www.w3.org/1999/xlink" x="0px"
	 y="0px" viewBox="0 0 154.49 144.42" style="enable-background:new 0 0 154.49 144.42;" xml:space="preserve">
<style type="text/css">
	.st0{fill:#d1181b;}
</style>
<circle class="st0" cx="77.25" cy="79.2" r="18.57"/>
<circle class="st0" cx="77.25" cy="18.57" r="18.57"/>
<circle class="st0" cx="38.2" cy="125.85" r="18.57"/>
<circle class="st0" cx="116.29" cy="125.85" r="18.57"/>
<g>
	<line class="st0" x1="77.25" y1="79.31" x2="77.25" y2="18.57"/>
	<rect x="73.25" y="18.57" class="st0" width="8" height="60.75"/>
</g>
<g>
	<line class="st0" x1="77.25" y1="79.31" x2="38.2" y2="125.85"/>

		<rect x="27.35" y="98.58" transform="matrix(0.6428 -0.766 0.766 0.6428 -57.9599 80.8546)" class="st0" width="60.74" height="8"/>
</g>
<g>
	<line class="st0" x1="77.25" y1="79.31" x2="116.29" y2="125.85"/>
	<rect x="92.77" y="72.21" transform="matrix(0.766 -0.6428 0.6428 0.766 -43.2973 86.201)" class="st0" width="8" height="60.74"/>
</g>
<g>
	<circle class="st0" cx="135.92" cy="63.59" r="18.57"/>
	<g>
		<line class="st0" x1="77.25" y1="79.31" x2="135.92" y2="63.59"/>

			<rect x="76.21" y="67.45" transform="matrix(0.9659 -0.2588 0.2588 0.9659 -14.8601 30.0166)" class="st0" width="60.74" height="8"/>
	</g>
</g>
<g>
	<circle class="st0" cx="18.57" cy="63.59" r="18.57"/>
	<g>
		<line class="st0" x1="77.25" y1="79.31" x2="18.57" y2="63.59"/>

			<rect x="43.91" y="41.08" transform="matrix(0.2588 -0.9659 0.9659 0.2588 -33.5086 99.2354)" class="st0" width="8" height="60.74"/>
	</g>
</g>
</svg>
