<?xml version="1.0" encoding="utf-8"?>
<!-- Generator: Adobe Illustrator 23.0.0, SVG Export Plug-In . SVG Version: 6.00 Build 0)  -->
<svg version="1.1" id="_x31_" xmlns="http://www.w3.org/2000/svg" xmlns:xlink="http://www.w3.org/1999/xlink" x="0px" y="0px"
	 viewBox="0 0 67.1 80" style="enable-background:new 0 0 67.1 80;" xml:space="preserve">
<style type="text/css">
	svg{fill:#d1181b;}
</style>
<g>
	<g>
		<path d="M33.55,0C15.05,0,0,15.05,0,33.55C0,62.76,33.55,80,33.55,80S67.1,62.76,67.1,33.55C67.1,15.05,52.05,0,33.55,0z
			 M37.39,62.88C18.05,65.31,1.79,49.05,4.22,29.71C5.89,16.53,16.53,5.89,29.71,4.22c19.34-2.44,35.61,13.83,33.17,33.17
			C61.22,50.57,50.57,61.22,37.39,62.88z"/>
	</g>
	<path d="M49.03,44.45c-6.03-1.39-11.65-2.61-8.93-7.75c8.28-15.63,2.19-23.99-6.55-23.99c-8.91,0-14.85,8.68-6.55,23.99
		c2.8,5.17-3.03,6.39-8.93,7.75c-2.53,0.58-3.91,1.49-4.67,2.77c2.09,3.12,4.87,5.72,8.14,7.59c4.38,2.5,9.61,3.68,15.15,2.98
		c3.17-0.4,6.15-1.45,8.83-2.98c3.27-1.87,6.06-4.48,8.15-7.6C52.93,45.94,51.55,45.03,49.03,44.45z"/>
</g>
</svg>
