<?xml version="1.0" encoding="utf-8"?>
<!-- Generator: Adobe Illustrator 23.0.0, SVG Export Plug-In . SVG Version: 6.00 Build 0)  -->
<svg version="1.1" id="_x31_" xmlns="http://www.w3.org/2000/svg" xmlns:xlink="http://www.w3.org/1999/xlink" x="0px" y="0px"
	 viewBox="0 0 128 118" style="enable-background:new 0 0 128 118;" xml:space="preserve">
<style type="text/css">
	svg{fill:#ffffff;}
</style>
<g>
	<path d="M111.51,18.05C101.32,7.45,87.13,0.64,71.41,0.01c-3.95-0.16-7.28,2.91-7.44,6.86c-0.16,3.95,2.91,7.28,6.86,7.44
		c11.93,0.49,22.61,5.62,30.37,13.67c7.75,8.06,12.49,18.94,12.49,31c0,12.37-4.99,23.5-13.1,31.62
		c-8.12,8.1-19.25,13.09-31.62,13.1c-12.37,0-23.51-4.99-31.62-13.1c-8.1-8.12-13.09-19.25-13.1-31.62c0-0.87,0.03-1.73,0.08-2.59
		l8.52,4.21c0.93,0.46,2,0.46,2.84,0.02c0.84-0.45,1.34-1.28,1.32-2.22l-0.84-37.46c-0.03-1.07-0.72-2.09-1.77-2.62
		c-1.06-0.52-2.29-0.45-3.15,0.18L1,40.61c-0.76,0.56-1.12,1.46-0.96,2.39c0.15,0.94,0.81,1.79,1.74,2.24l8.93,4.41
		c-0.48,3.04-0.75,6.15-0.75,9.32c0,16.28,6.62,31.08,17.29,41.74C37.9,111.38,52.7,118,68.98,118c16.27,0,31.08-6.62,41.73-17.29
		C121.38,90.05,128,75.25,128,58.98C128,43.11,121.71,28.64,111.51,18.05z"/>
</g>
</svg>
