<?xml version="1.0" encoding="utf-8"?>
<!-- Generator: Adobe Illustrator 18.1.1, SVG Export Plug-In . SVG Version: 6.00 Build 0)  -->
<svg version="1.1" id="レイヤー_1" xmlns="http://www.w3.org/2000/svg" xmlns:xlink="http://www.w3.org/1999/xlink" x="0px"
	 y="0px" viewBox="0 0 71.5 59" enable-background="new 0 0 71.5 59" xml:space="preserve">
<rect x="39.1" y="49.9" width="2.6" height="8.5"/>
<g>
	<defs>
		<rect id="SVGID_1_" y="0" width="71.5" height="59"/>
	</defs>
	<clipPath id="SVGID_2_">
		<use xlink:href="#SVGID_1_"  overflow="visible"/>
	</clipPath>
	<path clip-path="url(#SVGID_2_)" d="M32.6,49.9h-2.6v8.5h2.6v-5.8c1-1.5,3.6-0.8,3.8-0.7V49C34,48.4,32.6,49.9,32.6,49.9"/>
	<path clip-path="url(#SVGID_2_)" d="M66.6,49c-2.7,0-4.9,2.2-4.9,4.9c0,2.7,2.2,4.9,4.9,4.9c2.7,0,4.9-2.2,4.9-4.9
		C71.5,51.2,69.3,49,66.6,49 M66.6,56.2c-1.2,0-2.3-1-2.3-2.3c0-1.3,1-2.3,2.3-2.3c1.3,0,2.3,1,2.3,2.3
		C68.9,55.2,67.9,56.2,66.6,56.2"/>
	<path clip-path="url(#SVGID_2_)" d="M40.4,46.1c-0.8,0-1.4,0.6-1.4,1.4c0,0.8,0.6,1.4,1.4,1.4c0.8,0,1.4-0.6,1.4-1.4
		C41.8,46.7,41.2,46.1,40.4,46.1"/>
	<path clip-path="url(#SVGID_2_)" d="M26.6,55.2v-5.3h-2.5v0c-0.7-0.3-1.5-0.5-2.4-0.4c-2.3,0.2-3.9,2.2-3.9,4.6
		c0,2.4,1.6,4.4,3.9,4.6c1.2,0.1,2.2-0.2,3-0.7c0.4,0.6,0.9,0.8,0.9,0.8l2.2-1.8C27.7,57.1,26.6,56.5,26.6,55.2 M22.3,56.5
		c-1.1-0.1-1.8-1-1.8-2.3c0-1.3,0.8-2.2,1.8-2.3c1.2-0.1,1.8,0.6,1.8,0.6v3.4C24.1,55.9,23.5,56.6,22.3,56.5"/>
	<path clip-path="url(#SVGID_2_)" d="M12.7,49c-2.1,0-3.4,1.2-3.4,1.2C9,49.8,8.1,49,6.7,49c-1.6,0-3,0.8-3.4,1
		c-0.3-0.8-1.1-1.3-1.1-1.3L0,50.6c0,0,1.1,0.7,1.1,1.9v5.8h2.6v-5.7c0.1-0.2,0.4-0.4,0.7-0.6c0.3-0.2,0.7-0.3,1.2-0.3
		c0.5,0,0.9,0.1,1.1,0.4C6.9,52.4,7,52.7,7,53v5.3h2.6v-5.7c0.2-0.3,0.5-0.5,0.8-0.6c0.3-0.2,0.7-0.2,1.1-0.2c0.5,0,0.8,0.1,1.1,0.4
		c0.2,0.3,0.3,0.6,0.3,0.9v5.3h2.6v-6.1C15.6,49.8,13.7,49,12.7,49"/>
	<path clip-path="url(#SVGID_2_)" d="M56.8,49c-2.1,0-3.4,1.2-3.4,1.2c-0.2-0.4-1.2-1.2-2.5-1.2c-1.6,0-3,0.8-3.4,1
		c-0.3-0.8-1.1-1.3-1.1-1.3l-2.2,1.8c0,0,1.1,0.7,1.1,1.9v5.8h2.6v-5.7c0.1-0.2,0.4-0.4,0.7-0.6c0.3-0.2,0.7-0.3,1.2-0.3
		c0.5,0,0.9,0.1,1.1,0.4c0.2,0.3,0.3,0.6,0.3,0.9v5.3h2.6v-5.7c0.2-0.3,0.5-0.5,0.8-0.6c0.3-0.2,0.7-0.2,1.1-0.2
		c0.5,0,0.8,0.1,1.1,0.4c0.2,0.3,0.3,0.6,0.3,0.9v5.3h2.6v-6.1C59.7,49.8,57.8,49,56.8,49"/>
</g>
<g>
	<defs>
		<path id="SVGID_3_" d="M41.6,0c2.2,0.2,4.2,1.7,5.2,5c1.3,4.3,6.7,20.3,8.8,26.4c1.9,5.8,0.3,8.7-4.5,8.7c-2,0-4.9-1-6.2-5.3
			c0,0-8-24-10-29.6C33.2,0.8,31.1,0,30.1,0H14.9c2.2,0.2,4.2,1.7,5.2,5c1.5,4.9,8.8,26.2,9.6,29c1.5,5.2,0.8,7.4,3.9,7.4h15.7h3.5
			h13.6c3.5,0,6.3-3,4.3-8.9L70.6,32c-2.3-6.8-7.5-22.4-9-26.7C59.9,0.8,57.8,0,56.8,0H41.6z"/>
	</defs>
	<clipPath id="SVGID_4_">
		<use xlink:href="#SVGID_3_"  overflow="visible"/>
	</clipPath>
	
		<linearGradient id="SVGID_5_" gradientUnits="userSpaceOnUse" x1="0" y1="58.9544" x2="1" y2="58.9544" gradientTransform="matrix(0 -36.121 -36.121 0 2173.342 41.7013)">
		<stop  offset="0" style="stop-color:#0081CC"/>
		<stop  offset="0.2164" style="stop-color:#007FCA"/>
		<stop  offset="0.3903" style="stop-color:#0079C4"/>
		<stop  offset="0.5494" style="stop-color:#006EB8"/>
		<stop  offset="0.6996" style="stop-color:#005EA8"/>
		<stop  offset="0.8437" style="stop-color:#004B94"/>
		<stop  offset="0.9813" style="stop-color:#00337E"/>
		<stop  offset="1" style="stop-color:#002F7B"/>
	</linearGradient>
	<rect x="14.9" y="0" clip-path="url(#SVGID_4_)" fill="url(#SVGID_5_)" width="57.9" height="41.4"/>
</g>
<g>
	<defs>
		<path id="SVGID_6_" d="M41.5,0c-0.5,0-2.8,0.4-4.8,5.3L26.6,34.9c-1.5,4.1-3.9,5.2-6.1,5.2c-4.5,0-6.6-2.8-4.6-8.6l9-26.5
			c1-3.3,3-4.8,5.2-5H14.9c0,0,0,0,0,0h-0.1C14.3,0,12,0.4,10,5.3L0.7,32.5c-2,5.9,0.8,8.9,4.3,8.9h13.6h3.8H34
			c3.1,0,5.9-1.7,7.8-7.4c0.1-0.3,9.7-29,9.7-29c1-3.3,3-4.8,5.2-5H41.6C41.6,0,41.6,0,41.5,0L41.5,0z"/>
	</defs>
	<clipPath id="SVGID_7_">
		<use xlink:href="#SVGID_6_"  overflow="visible"/>
	</clipPath>
	
		<linearGradient id="SVGID_8_" gradientUnits="userSpaceOnUse" x1="0" y1="58.9544" x2="1" y2="58.9544" gradientTransform="matrix(0 36.1208 36.1208 0 -2101.7212 0.3051)">
		<stop  offset="0" style="stop-color:#0081CC"/>
		<stop  offset="0.2164" style="stop-color:#007FCA"/>
		<stop  offset="0.3903" style="stop-color:#0079C4"/>
		<stop  offset="0.5494" style="stop-color:#006EB8"/>
		<stop  offset="0.6996" style="stop-color:#005EA8"/>
		<stop  offset="0.8437" style="stop-color:#004B94"/>
		<stop  offset="0.9813" style="stop-color:#00337E"/>
		<stop  offset="1" style="stop-color:#002F7B"/>
	</linearGradient>
	<rect x="-1.3" y="0" clip-path="url(#SVGID_7_)" fill="url(#SVGID_8_)" width="58.1" height="41.4"/>
</g>
</svg>
