<svg xmlns="http://www.w3.org/2000/svg" width="393.64" height="18.88" viewBox="0 0 393.64 18.88"><defs><style>.cls-1{fill:#fff;}</style></defs><title>txt_copy</title><g id="レイヤー_2" data-name="レイヤー 2"><g id="レイヤー_1-2" data-name="レイヤー 1"><path class="cls-1" d="M7.24,6.2a1.4,1.4,0,0,1,1.24.68l2.2-1.28A3.91,3.91,0,0,0,7.3,3.66a4,4,0,0,0-4,3.94,4,4,0,0,0,4,3.94A3.89,3.89,0,0,0,10.68,9.6L8.48,8.32A1.4,1.4,0,0,1,7.24,9a1.4,1.4,0,1,1,0-2.8Zm0-5.84A7.24,7.24,0,1,0,14.48,7.6,7.24,7.24,0,0,0,7.24.36Zm0,13.76A6.48,6.48,0,0,1,.8,7.6,6.48,6.48,0,0,1,7.24,1.08,6.48,6.48,0,0,1,13.68,7.6,6.48,6.48,0,0,1,7.24,14.12ZM23.88.6h-5.6v14h5.6a6.78,6.78,0,0,0,6.8-7A6.78,6.78,0,0,0,23.88.6Zm0,10.92h-2.4V3.68h2.4A3.6,3.6,0,0,1,27.6,7.6,3.6,3.6,0,0,1,23.88,11.52ZM39.2,4.32A5.13,5.13,0,0,0,33.88,9.6a5.16,5.16,0,0,0,5.54,5.28,5.07,5.07,0,0,0,4.36-2.06l-2.4-1.38a2.61,2.61,0,0,1-1.92.76,2.28,2.28,0,0,1-2.4-1.4h7.1a5.81,5.81,0,0,0,.12-1.2A5,5,0,0,0,39.2,4.32ZM37,8.56a2.25,2.25,0,0,1,4.3,0ZM55.88,8.2,50.48.6h-2.4v14h3.2V7l5.4,7.6h2.4V.6h-3.2ZM67,.6l-4.76,14h3.5l.7-2.2h5.2l.7,2.2h3.5L71.12.6Zm.4,8.8,1.64-5.14L70.72,9.4Zm25.32-6A3.62,3.62,0,0,1,96,5.16l2.76-1.6a7,7,0,0,0-6-3.24A7.1,7.1,0,0,0,85.48,7.6a7.1,7.1,0,0,0,7.28,7.28,6.93,6.93,0,0,0,6-3.24L96,10a3.6,3.6,0,0,1-3.24,1.72A3.87,3.87,0,0,1,88.68,7.6,3.87,3.87,0,0,1,92.76,3.44Zm14.4.88a5.28,5.28,0,1,0,5.3,5.28A5.24,5.24,0,0,0,107.16,4.32Zm0,7.64a2.24,2.24,0,0,1-2.3-2.36,2.3,2.3,0,1,1,4.6,0A2.24,2.24,0,0,1,107.16,12Zm10.7-.88a1.9,1.9,0,1,0,1.9,1.9A1.91,1.91,0,0,0,117.86,11.08Zm5.7,6.32H126l1.6-5.9h-3.2ZM134.86.6h-3.2v14h8.2V11.52h-5ZM147,1.8l-3,.9V4.6h-1.6V7.48H144V11c0,2.8,1.14,4,5.06,3.58V11.88c-1.32.08-2.06,0-2.06-.86V7.48H149V4.6H147Zm13.22,3.74a3.76,3.76,0,0,0-3-1.22,5,5,0,0,0-4.78,5.28,5,5,0,0,0,4.78,5.28,3.76,3.76,0,0,0,3-1.22v.94h3V.6h-3ZM157.8,12a2.28,2.28,0,0,1-2.38-2.44,2.38,2.38,0,1,1,4.76,0A2.28,2.28,0,0,1,157.8,12Zm11.28-1A1.9,1.9,0,1,0,171,13,1.91,1.91,0,0,0,169.08,11.08ZM185.64.6l-4.76,14h3.5l.7-2.2h5.2l.7,2.2h3.5L189.72.6Zm.4,8.8,1.64-5.14,1.64,5.14Zm11.54,5.2h3V0h-3Zm7.2,0h3V0h-3ZM222,6.38V4.6h-3v10h3V10.08c0-2,1.76-2.48,3-2.28V4.4A3,3,0,0,0,222,6.38Zm6.4,8.22h3V4.6h-3ZM229.88.12a1.82,1.82,0,0,0-1.8,1.8,1.8,1.8,0,0,0,3.6,0A1.82,1.82,0,0,0,229.88.12Zm13,5.5A3.55,3.55,0,0,0,240,4.32a5,5,0,0,0-4.92,5.08A5,5,0,0,0,240,14.48a3.55,3.55,0,0,0,2.92-1.3v.92a2,2,0,0,1-2.26,2.14A2.29,2.29,0,0,1,238.38,15l-2.56,1.48a5.12,5.12,0,0,0,4.74,2.42c2.66,0,5.28-1.42,5.28-4.78V4.6h-2.92Zm-2.42,6.1a2.26,2.26,0,0,1-2.42-2.32,2.42,2.42,0,0,1,4.84,0A2.26,2.26,0,0,1,240.5,11.72Zm15.4-7.4A3.42,3.42,0,0,0,253,5.54V.6h-3v14h3V9.14c0-1.42.76-2.06,1.86-2.06a1.65,1.65,0,0,1,1.74,1.82v5.7h3V8.46C259.64,5.76,257.92,4.32,255.9,4.32ZM267.5,1.8l-3,.9V4.6h-1.6V7.48h1.6V11c0,2.8,1.14,4,5.06,3.58V11.88c-1.32.08-2.06,0-2.06-.86V7.48h2.06V4.6H267.5Zm8.8,5.72c0-.36.32-.56.84-.56a1.45,1.45,0,0,1,1.34.88L281,6.46a4.38,4.38,0,0,0-3.9-2.14c-2.08,0-3.92,1.1-3.92,3.28,0,3.46,4.92,2.88,4.92,4,0,.4-.36.62-1.08.62a1.64,1.64,0,0,1-1.7-1.18l-2.6,1.48a4.38,4.38,0,0,0,4.3,2.38c2.16,0,4.16-1,4.16-3.28C281.22,7.9,276.3,8.66,276.3,7.52Zm18.52-1.14V4.6h-3v10h3V10.08c0-2,1.76-2.48,3-2.28V4.4A3,3,0,0,0,294.82,6.38ZM306,4.32a5.13,5.13,0,0,0-5.32,5.28,5.16,5.16,0,0,0,5.54,5.28,5.07,5.07,0,0,0,4.36-2.06l-2.4-1.38a2.61,2.61,0,0,1-1.92.76,2.28,2.28,0,0,1-2.4-1.4H311a5.81,5.81,0,0,0,.12-1.2A5,5,0,0,0,306,4.32Zm-2.2,4.24a2.25,2.25,0,0,1,4.3,0Zm13.82-1c0-.36.32-.56.84-.56a1.45,1.45,0,0,1,1.34.88l2.56-1.38a4.38,4.38,0,0,0-3.9-2.14c-2.08,0-3.92,1.1-3.92,3.28,0,3.46,4.92,2.88,4.92,4,0,.4-.36.62-1.08.62a1.64,1.64,0,0,1-1.7-1.18l-2.6,1.48a4.38,4.38,0,0,0,4.3,2.38c2.16,0,4.16-1,4.16-3.28C322.58,7.9,317.66,8.66,317.66,7.52ZM331,4.32a5.13,5.13,0,0,0-5.32,5.28,5.16,5.16,0,0,0,5.54,5.28,5.07,5.07,0,0,0,4.36-2.06l-2.4-1.38a2.61,2.61,0,0,1-1.92.76,2.28,2.28,0,0,1-2.4-1.4H336a5.81,5.81,0,0,0,.12-1.2A5,5,0,0,0,331,4.32Zm-2.2,4.24a2.25,2.25,0,0,1,4.3,0Zm14-2.18V4.6h-3v10h3V10.08c0-2,1.76-2.48,3-2.28V4.4A3,3,0,0,0,342.78,6.38Zm10.7,4.56L351.4,4.6h-3.32l3.7,10h3.4l3.7-10h-3.32ZM366.8,4.32a5.13,5.13,0,0,0-5.32,5.28A5.16,5.16,0,0,0,367,14.88a5.07,5.07,0,0,0,4.36-2.06L369,11.44a2.61,2.61,0,0,1-1.92.76,2.28,2.28,0,0,1-2.4-1.4h7.1a5.81,5.81,0,0,0,.12-1.2A5,5,0,0,0,366.8,4.32Zm-2.2,4.24a2.25,2.25,0,0,1,4.3,0Zm18.24-3a3.76,3.76,0,0,0-3-1.22,5,5,0,0,0-4.78,5.28,5,5,0,0,0,4.78,5.28,3.76,3.76,0,0,0,3-1.22v.94h3V.6h-3ZM380.46,12a2.28,2.28,0,0,1-2.38-2.44,2.38,2.38,0,1,1,4.76,0A2.28,2.28,0,0,1,380.46,12Zm11.28-1a1.9,1.9,0,1,0,1.9,1.9A1.91,1.91,0,0,0,391.74,11.08Z"/></g></g></svg>