<?xml version="1.0" standalone="no"?>
<!DOCTYPE svg PUBLIC "-//W3C//DTD SVG 1.1//EN" "http://www.w3.org/Graphics/SVG/1.1/DTD/svg11.dtd" >
<svg xmlns="http://www.w3.org/2000/svg" xmlns:xlink="http://www.w3.org/1999/xlink" version="1.1">
<metadata>
Created by FontForge 20170731 at Wed Jun 19 08:08:56 2019
 By Aleksey,,,
</metadata>
<defs>
<font id="icomoon" horiz-adv-x="1024" >
  <font-face 
    font-family="icomoon"
    font-weight="400"
    font-stretch="normal"
    units-per-em="1024"
    panose-1="0 0 0 0 0 0 0 0 0 0"
    ascent="960"
    descent="-64"
    bbox="0 -66 1024.4 960"
    underline-thickness="0"
    underline-position="0"
    unicode-range="U+0001-FFFD"
  />
<missing-glyph 
 />
    <glyph glyph-name=".notdef" unicode="&#xfffd;" 
 />
    <glyph glyph-name="glyph1" horiz-adv-x="0" 
d="M0 0v0v0v0z" />
    <glyph glyph-name="glyph1" horiz-adv-x="0" 
d="M0 0v0v0v0z" />
    <glyph glyph-name="nonmarkingreturn" horiz-adv-x="341" 
 />
    <glyph glyph-name="uni0001" horiz-adv-x="0" 
d="M0 0v0v0v0z" />
    <glyph glyph-name="space" unicode=" " horiz-adv-x="512" 
d="M0 0v0v0v0z" />
    <glyph glyph-name="uniE900" unicode="&#xe900;" 
d="M498 528q-34 0 -57 -24t-23 -56q0 -34 23.5 -57t56.5 -23t56.5 24t23.5 56q1 34 -23 57t-57 23v0zM803 960h-582q-45 0 -85 -18q-41 -17 -71 -47t-47 -71q-18 -40 -18 -85v-580q0 -46 18 -86q17 -41 47 -71.5t71 -47.5q40 -18 85 -18h580q46 0 86 18q40 17 70 47t48 71
q17 40 17 85v582q1 45 -16 85q-18 41 -47.5 71t-70.5 47q-40 18 -85 18zM825 333q-15 -44 -49 -71t-74 -27q-36 0 -66.5 20t-45.5 54l-2 4l-4 -2q-20 -13 -41.5 -19t-44.5 -6q-68 0 -115 48t-47 114t48 114t114 48q20 0 39.5 -5t37.5 -16l5 -2v6q0 5 3.5 9t8.5 4h61
q6 0 10.5 -4t4.5 -11v-235q0 -14 9.5 -24.5t24.5 -10.5q11 0 22 11t17 28q8 21 12.5 42.5t4.5 43.5q0 51 -20 95q-19 44 -52 77.5t-78 52.5q-44 19 -94 19q-51 0 -95 -20q-44 -19 -77.5 -52t-52.5 -78q-19 -44 -19 -94q0 -51 20 -95q19 -45 52 -78t78 -52q44 -19 94 -19
q20 0 38.5 3t37.5 10l20 6q6 1 10.5 -1.5t6.5 -7.5l18 -59q2 -5 -0.5 -10t-7.5 -6l-21 -6q-24 -8 -50 -12.5t-52 -4.5q-70 0 -131 26q-61 27 -106 72t-71 106t-26 130t26 130q26 60 71 105t105 71q61 26 130 26t130 -26q60 -27 105 -72t71 -106t26 -130q0 -26 -4.5 -55
t-14.5 -58v0z" />
    <glyph glyph-name="uniE901" unicode="&#xe901;" 
d="M1022 65v485l-59 48q-58 48 -134.5 111.5t-149.5 125.5q-74 62 -104 90q-50 49 -88 23.5l-38 -25.5l-449 -385v-52v-124.5v-150.5v-132q0 -18 3 -32.5t7 -26.5l297 326l-252 186l455 383l469 -383l-272 -195l311 -344q8 26 6 49l-2 23v0zM502 190l-129 102l-305 -336
q27 -15 51 -17.5l24 -2.5h104h239.5h262.5h177q7 0 13.5 1t12.5 1l-315 350l-135 -98v0zM807 471v108l-590 -2v-94l287 -225z" />
    <glyph glyph-name="uniE902" unicode="&#xe902;" 
d="M704 608v320h-704v-640h320v-320h704v640h-320zM64 352v512h576v-256h-320v-256h-256zM384 32v333h576v-333h-576v0z" />
    <glyph glyph-name="uniE903" unicode="&#xe903;" 
d="M512 426l447 373q-2 0 -3.5 0.5t-3.5 0.5h-880q-2 0 -3.5 -0.5t-3.5 -0.5l447 -373v0zM1024 728q0 3 -0.5 6t-1.5 6l-317 -264l317 -318q1 3 1.5 5t0.5 5v560v0zM2 740q0 -3 -1 -6t-1 -6v-560q0 -3 0.5 -5t1.5 -5l317 318l-317 264v0zM642 418l-117 -97q-3 -3 -6.5 -4
t-6.5 -1t-6.5 1t-6.5 4l-117 97l-320 -320q3 -1 5 -1.5t5 -0.5h880q3 0 5 0.5t5 1.5l-320 320v0z" />
    <glyph glyph-name="uniE904" unicode="&#xe904;" 
d="M0 921h1024v-158h-1024v158zM0 527h1024v-158h-1024v158zM0 133h1024v-158h-1024v158z" />
    <glyph glyph-name="uniE905" unicode="&#xe905;" 
d="M84 817q-13 -15 -26 -60q-14 -44 -1 -116t65 -169q53 -98 172 -220q125 -128 227 -185q103 -58 178 -72.5t122 -0.5q46 14 60 28l-223 223q-24 -23 -57.5 -5t-91.5 65q-39 31 -81 72t-80 88q-27 33 -43 66t8 58l-229 228v0zM962 102q11 11 10.5 25.5t-10.5 24.5v0l-27 27
q-28 27 -60.5 60t-59.5 60l-28 27q-10 10 -24.5 10t-24.5 -10l-64 -63l225 -224l31.5 31.5l31.5 31.5v0v0zM394 669q11 11 10.5 25.5t-10.5 24.5v0l-28 28t-62 61.5t-62 61.5l-28 28q-10 10 -24.5 10t-25.5 -10l-63 -63l229 -229l64 63v0v0z" />
    <glyph glyph-name="uniE906" unicode="&#xe906;" 
d="M683 590v285h-626v-569h284v-285h626v569h-284v0zM114 363v455h512v-228h-285v-227h-227v0zM398 78v296h512v-296h-512z" />
    <glyph glyph-name="uniE907" unicode="&#xe907;" 
d="M874 810q-36 37 -77 64q-42 28 -88 47t-96 29t-101 10t-101 -10t-96 -29t-88 -47q-41 -27 -77 -64q-37 -36 -64 -77q-28 -42 -47 -88t-29 -96t-10 -101t10 -101t29 -96t47 -88q27 -41 64 -77q36 -37 77 -64q42 -28 88 -47t96 -29t101 -10t101 10t96 29t88 47q41 27 77 64
q37 36 64 77q28 42 47 88t29 96t10 101t-10 101t-29 96t-47 88q-27 41 -64 77zM977 471h-199q-1 59 -9 115.5t-24 107.5q28 14 55 32t52 41q28 -29 50 -63t38.5 -71.5t25.5 -78.5q9 -40 11 -83zM535 425h198q-1 -55 -8.5 -106t-19.5 -98q-40 17 -83 26t-87 11v167v0z
M819 798q-20 -18 -41.5 -32.5t-44.5 -26.5q-6 17 -12.5 32.5t-13.5 30.5q-16 29 -33 53.5t-35 43.5q51 -16 96.5 -41.5t83.5 -59.5zM535 907q35 -8 68 -40.5t61 -86.5q7 -14 13.5 -30t12.5 -32q-37 -15 -76.5 -24t-78.5 -10v223zM705 673q12 -46 19.5 -97.5t8.5 -104.5h-198
v165q44 3 87 12.5t83 24.5v0v0zM489 471h-198q1 53 8.5 104.5t19.5 97.5q40 -17 83 -26t87 -11v-165zM489 907v-223q-39 1 -78.5 10t-76.5 24q6 17 12.5 32.5t13.5 29.5q27 54 60.5 86.5t68.5 40.5zM387 897q-18 -19 -35 -43.5t-33 -53.5q-7 -15 -13.5 -30.5t-12.5 -32.5
q-25 14 -46.5 28.5t-41.5 32.5q38 34 84 59.5t98 39.5v0zM172 765q25 -21 51 -39.5t56 -33.5q-14 -51 -23 -107.5t-10 -116.5h-199q2 44 12 85q9 41 25 78.5t38 71.5q22 33 50 62zM47 425h199q1 -59 9 -115.5t24 -107.5q-28 -14 -55 -32t-50 -39q-28 28 -51 61
q-22 34 -38.5 71.5t-25.5 78.5q-10 40 -12 83v0zM207 98q20 17 41.5 32t44.5 27q6 -17 12.5 -32t13.5 -29q16 -29 33 -53.5t35 -43.5q-51 14 -96.5 39.5t-83.5 59.5v0v0zM489 -11q-35 8 -68 40.5t-61 86.5q-7 14 -13.5 29.5t-12.5 32.5q37 15 75.5 24t79.5 10v-223zM319 221
q-12 46 -19.5 97.5t-8.5 106.5h198v-167q-44 -2 -87 -12t-83 -25v0v0zM535 -11v221q39 -1 78.5 -10t76.5 -24q-6 -17 -12.5 -31.5t-13.5 -30.5q-27 -52 -60 -84.5t-69 -40.5v0v0zM639 -1q18 19 35 43.5t33 53.5q7 14 13.5 29t12.5 32q23 -12 44.5 -27t41.5 -32
q-38 -34 -83.5 -59.5t-96.5 -39.5v0v0zM852 129q-25 21 -51 39t-53 32q15 51 23 108t9 115h199q-2 -42 -12 -82q-10 -41 -26.5 -78.5t-38.5 -70.5q-22 -34 -50 -63v0z" />
    <glyph glyph-name="uniE908" unicode="&#xe908;" 
d="M828 482q-6 0 -12 -1.5t-12 -3.5v0q-6 25 -27.5 41.5t-49.5 15.5q-6 0 -12 -1.5t-13 -3.5v0q-6 25 -27.5 41.5t-48.5 15.5q-6 0 -11 -1t-11 -3h-1l-1 -1l-5 148q-1 30 -24 51.5t-55 19.5q-31 0 -52.5 -23t-20.5 -53l6 -167l5 -143q-2 3 -3.5 5t-2.5 4q-20 29 -47.5 40
t-47.5 11q-6 0 -11 -1.5t-9 -2.5q-12 -5 -20.5 -13t-13.5 -19q-5 -13 -3 -29.5t10 -36.5q3 -5 22 -48q19 -44 47 -97.5t60 -104.5q33 -51 62 -73q7 -6 14 -11t16 -10q33 -19 70.5 -28t78.5 -9q39 2 75.5 13t66.5 31h2l4 3q8 6 15 12t13 12q12 11 21 23.5t17 25.5q4 7 7 14.5
t5 14.5q3 8 5 15.5t2 15.5q1 5 1.5 10t0.5 10v4.5v3.5v2.5v2.5l-7 205q-1 32 -23.5 53t-54.5 20v0v0zM878 202v-1.5v-1.5v-3v-4q0 -4 -0.5 -8t-0.5 -8q-1 -7 -2.5 -13t-3.5 -12q-3 -6 -5.5 -12t-5.5 -12q-6 -10 -13.5 -20.5t-16.5 -19.5q-5 -4 -9.5 -8t-10.5 -8h-2l-5 -2
q-27 -18 -59.5 -28.5t-67.5 -12.5t-68 6.5t-61 25.5q-7 4 -13.5 9t-13.5 9q-22 17 -48 57t-51.5 87t-46.5 93q-21 45 -33 72v1q-5 12 -7 21t0 15q1 2 3 5t9 6q1 0 3 0.5t5 0.5q14 1 32 -6.5t31 -26.5q22 -33 31.5 -51t9.5 -19l20 -43l19 -40l-16 474q0 16 11 27t27 12
q17 1 28.5 -9.5t11.5 -26.5l5 -131l3 -94l31 35q6 6 13 9t15 4q16 1 28 -9.5t12 -26.5l1 -37l1 -26l30 35q6 6 13 9t15 4q16 1 28 -10t12 -26l1 -37l1 -26l31 34q5 7 12.5 10t14.5 4q16 0 28 -10.5t12 -25.5l12 -210v0zM386 776q-10 19 -17.5 42t-10.5 42l-183 -369
q17 8 40 16t44 12l2 -24q-31 -6 -62.5 -19t-57.5 -28q-3 29 -12 62t-23 62l20 12q10 -19 17.5 -42t10.5 -42l183 370q-17 -9 -40 -16.5t-44 -11.5l-2 24q31 6 62.5 19t57.5 28q3 -29 12 -62t22 -62l-19 -13v0z" />
    <glyph glyph-name="uniE90A" unicode="&#xe90a;" 
d="M512 128l-486 486q-26 26 -26 63.5t26 63.5q27 27 64.5 27t63.5 -27l358 -357l358 357q26 27 63.5 27t63.5 -27q27 -26 27 -63.5t-27 -63.5z" />
    <glyph glyph-name="uniE90B" unicode="&#xe90b;" 
d="M832 448l-486 -486q-26 -26 -63.5 -26t-63.5 26q-27 27 -27 64.5t27 63.5l357 358l-357 358q-27 26 -27 63.5t27 63.5q26 27 63.5 27t63.5 -27z" />
    <glyph glyph-name="uniE90C" unicode="&#xe90c;" 
d="M391 710v187l-215 -216h186q16 0 22.5 7t6.5 22zM504 454q3 2 6.5 20t9.5 46q6 29 -0.5 45t-21.5 14q-16 -1 -20 -17t-3 -34q2 -19 9.5 -37t13.5 -31q-2 2 0.5 -2.5t5.5 -3.5zM408 258q-5 -2 -31.5 -12.5t-46.5 -28.5q-20 -19 -21 -34.5t8 -21.5q10 -6 30.5 8.5
t35.5 32.5q15 19 25 34.5t10 18.5q0 2 -2 4t-8 -1zM481 301q14 6 52 14l38 8l-23 29t-28 37q-1 0 -16 -38t-23 -50v0zM817 907h-385v-223q0 -19 -13 -32.5t-32 -13.5h-221v-606q0 -15 10.5 -26t26.5 -11h614q16 0 26.5 11t10.5 26v840q0 14 -10.5 24.5t-26.5 10.5v0z
M698 231q-26 3 -55 26t-55 46h-2v0q-5 0 -43.5 -11t-75.5 -22q-54 -95 -102 -124t-72 3q-14 17 -1.5 50t75.5 63q12 6 29.5 12t37.5 12q17 32 33.5 70.5t26.5 64.5q-17 31 -28.5 60t-12.5 45q-3 31 10 54.5t39 23.5q34 0 49 -40.5t-25 -154.5q13 -20 29 -43t35 -43
q34 6 63 8t43 2q48 -3 62.5 -20.5t15.5 -34.5q2 -14 -17.5 -33t-58.5 -14zM692 317q-17 1 -49.5 -3t-28.5 -7l28.5 -18t51.5 -21q22 -3 31.5 4t9.5 16q-1 11 -10.5 19t-32.5 10z" />
    <glyph glyph-name="uniE90E" unicode="&#xe90e;" 
d="M1001 70l-211 211q38 55 57 116.5t19 129.5q0 44 -8.5 86t-25.5 82t-40 74.5t-52 64.5q-29 29 -63.5 52t-74.5 40q-41 17 -83 25.5t-86 8.5t-86 -8.5t-82 -25.5t-74.5 -40t-64.5 -52q-29 -30 -52 -64.5t-40 -74.5t-25.5 -82t-8.5 -86t8.5 -86t25.5 -83q17 -40 40 -74.5
t52 -63.5q30 -29 64.5 -52t74.5 -40t82 -25.5t86 -8.5q68 0 129.5 19t116.5 57l211 -211q11 -11 25 -17t30 -6t30 6t26 17q11 12 17 26t6 30t-5.5 30t-17.5 25v0zM628 332q-40 -40 -89 -60.5t-106 -20.5t-105.5 20.5t-89.5 60.5q-40 40 -60 89t-20 106t20 105.5t60 89.5
q41 40 89.5 60t105.5 20t106 -20t89 -60q40 -41 60.5 -89.5t20.5 -105.5t-20.5 -106t-60.5 -89z" />
    <glyph glyph-name="uniE912" unicode="&#xe912;" 
d="M0 255l8 10t7 10q11 15 20 31t17 33q20 37 37.5 74.5t34.5 75.5q17 36 33 72.5t33 72.5q13 29 26.5 57t27.5 57q5 10 10.5 19.5t10.5 19.5l1.5 1.5l1.5 1.5q1 -4 2.5 -8t2.5 -8q15 -39 29 -77.5t29 -76.5q18 -46 36 -91t37 -90q16 -39 32.5 -78.5t33.5 -78.5
q16 -38 33 -75t35 -74l16 -32t18 -31l2 -2t2 -3q-5 2 -9.5 3.5t-9.5 2.5q-50 17 -99.5 33.5t-99.5 32.5q-4 2 -6.5 4t-3.5 5q-5 8 -9 16.5t-7 16.5q-10 23 -17.5 47t-14.5 48q-13 44 -25 89t-23 90q-1 5 -2 9.5t-3 9.5l-2 -6t-1 -6l-26 -84t-28 -84q-6 -15 -12 -31t-14 -31
q-2 -4 -5 -8l-6 -8q-1 -3 -4 -3.5t-6 0.5q-35 11 -70.5 22t-70.5 22h-1.5h-0.5v0v0v0zM336 830q10 -3 19.5 -6.5t19.5 -6.5q17 -4 34 -7.5t35 -5.5q27 -3 54 -4.5t54 -0.5q19 0 38 1t38 3q25 2 50.5 5.5t50.5 8.5q11 3 22.5 6t23.5 8l6 -10l6 -10q8 -15 14.5 -30t12.5 -31
q13 -37 26 -74.5t26 -75.5q14 -42 28.5 -84t31.5 -83q13 -32 27.5 -63t32.5 -61q8 -13 17 -25.5t19 -23.5q0 -1 0.5 -1.5l1.5 -1.5q-3 -3 -6.5 -6t-6.5 -6q-19 -14 -39 -25t-41 -21q-31 -14 -62 -25.5t-62 -22.5q-40 -13 -79.5 -24t-80.5 -21q-2 -1 -3 -0.5t-2 2.5
q-7 12 -14.5 23.5t-13.5 24.5q-18 34 -34.5 69.5t-32.5 71.5q-21 49 -41.5 98t-40.5 98q-18 43 -35 86.5t-33 86.5q-16 40 -30.5 80.5t-29.5 80.5l-0.5 1t-0.5 2v0z" />
    <glyph glyph-name="uniEA90" unicode="&#xea90;" 
d="M608 768h160v192h-160q-46 0 -87 -18q-41 -17 -71.5 -47.5t-47.5 -71.5q-18 -41 -18 -87v-96h-128v-192h128v-512h192v512h160l32 192h-192v96q0 13 9.5 22.5t22.5 9.5z" />
    <glyph glyph-name="uniEA91" unicode="&#xea91;" 
d="M928 960h-832q-40 0 -68 -28t-28 -68v-832q0 -40 28 -68t68 -28h416v448h-128v128h128v64q0 79 56.5 135.5t135.5 56.5h128v-128h-128q-26 0 -45 -19t-19 -45v-64h192l-32 -128h-160v-448h288q40 0 68 28t28 68v832q0 40 -28 68t-68 28z" />
    <glyph glyph-name="uniEA92" unicode="&#xea92;" 
d="M512 868q103 0 134.5 -0.5t72.5 -2.5q37 -2 59 -7.5t36 -10.5q18 -7 31.5 -16t27.5 -22q13 -13 22 -27t16 -32q5 -13 10.5 -35t7.5 -60q1 -40 2 -72t1 -135q0 -102 -1 -134t-2 -72q-2 -38 -7.5 -60t-10.5 -35q-7 -18 -16 -32t-22 -27q-14 -14 -27.5 -23t-31.5 -16
q-14 -5 -36 -10.5t-59 -6.5q-41 -2 -72.5 -2.5t-134.5 -0.5q-102 0 -134 0.5t-73 2.5q-37 1 -59 6.5t-36 10.5q-17 7 -31 16t-27 23q-14 13 -23 27t-16 31q-5 14 -10.5 36t-6.5 59q-2 41 -2.5 73t-0.5 134q0 103 0.5 135t2.5 72q1 37 6.5 59t10.5 36q7 18 16 31.5t22 27.5
q14 13 27.5 22t31.5 16q14 5 36 10.5t59 7.5q41 2 72.5 2.5t134.5 0.5v0zM512 960q-104 0 -137 -0.5t-74 -2.5t-70.5 -8t-53.5 -16q-26 -10 -48 -24t-43 -35t-35 -43t-24 -48q-10 -24 -16 -53.5t-8 -70.5t-2.5 -74t-0.5 -137t0.5 -137t2.5 -74t8 -70.5t16 -53.5
q10 -26 24 -48t35 -43t43 -35t48 -24q24 -9 53.5 -15.5t70.5 -8.5t74 -2.5t137 -0.5t137 0.5t74 2.5t70.5 8.5t53.5 15.5q25 10 47 24t44 35q21 21 35 43t24 48q9 24 15.5 53.5t7.5 70.5q2 41 2.5 74t0.5 137t-0.5 137t-2.5 74q-1 41 -7.5 70.5t-15.5 53.5q-10 25 -24 47.5
t-35 43.5t-43 35t-48 24q-24 9 -53.5 15.5t-70.5 8.5t-74 2.5t-137 0.5v0v0zM512 711q-54 0 -102 -21q-48 -20 -84 -56t-56 -84q-21 -48 -21 -102t21 -102q20 -48 56 -84t84 -56q48 -21 102 -21t102 21q48 20 84 56t56 84q21 48 21 102t-21 102q-20 48 -56 84t-84 56
q-48 21 -102 21zM512 277q-71 0 -121 50t-50 121t50 121t121 50t121 -50t50 -121t-50 -121t-121 -50zM847 721q0 -25 -18 -43t-44 -18q-25 0 -43 18t-18 43q0 26 18 44t43 18q26 0 44 -18t18 -44z" />
    <glyph glyph-name="uniEA96" unicode="&#xea96;" 
d="M1024 734q-28 -13 -58.5 -21.5t-62.5 -11.5q33 19 57 49t36 67q-31 -18 -64.5 -31t-69.5 -20q-28 30 -68 48t-85 18q-43 0 -82 -16q-38 -17 -66.5 -45.5t-44.5 -66.5q-17 -38 -17 -82q0 -12 1.5 -24t3.5 -24q-65 3 -126 20q-62 17 -117 45.5t-103 67.5t-87 87
q-13 -23 -20.5 -50t-7.5 -56q0 -54 25.5 -100t67.5 -75q-25 1 -49.5 8t-45.5 19v-1.5v-1.5q0 -76 48.5 -134t120.5 -72q-13 -4 -27 -5.5t-29 -1.5q-10 0 -19.5 1t-19.5 2q20 -62 73.5 -103t122.5 -43q-54 -42 -120.5 -66t-140.5 -24q-13 0 -25.5 1t-24.5 2q35 -22 73 -40
q38 -17 78.5 -29t83.5 -19q43 -6 87 -6q145 0 256 54q112 55 188 141t115 192q39 107 39 211q0 7 -0.5 13.5t-0.5 13.5q31 22 57.5 49.5t47.5 59.5v0z" />
    <glyph glyph-name="uniEA9D" unicode="&#xea9d;" 
d="M1014 653l-9 39t-32 62q-29 31 -58.5 36.5t-44.5 7.5q-53 4 -116 6t-116.5 3t-89.5 1h-36v0h-36t-89.5 -1t-116.5 -3t-116 -6q-15 -2 -44.5 -7.5t-58.5 -36.5q-23 -23 -32 -62l-9 -39l-5 -52t-5 -114v-78q0 -62 5 -113.5l5 -51.5l9 -39.5t32 -62.5q29 -31 62.5 -36
t50.5 -8q31 -3 89 -5t115.5 -3t100.5 -2h43h36t89.5 1.5t116.5 3.5t117 6q15 1 44 6.5t58 36.5q23 23 32 62.5l9 39.5l5 51.5t5 113.5v78q0 62 -5 114l-5 52v0zM406 315v288l277 -144l-277 -144v0z" />
    <glyph glyph-name="uniF019" unicode="&#xf019;" horiz-adv-x="951" 
d="M731 183q0 15 -10.5 25.5t-25.5 10.5t-26 -10.5t-11 -25.5t11 -26t26 -11t25.5 11t10.5 26zM878 183q0 15 -11 25.5t-26 10.5t-25.5 -10.5t-10.5 -25.5t10.5 -26t25.5 -11t26 11t11 26zM951 311v-183q0 -23 -16 -39t-39 -16h-841q-23 0 -39 16t-16 39v183q0 23 16 39
t39 16h266l77 -78q16 -15 36 -23.5t41 -8.5q22 0 42 8.5t36 23.5l78 78h265q23 0 39 -16t16 -39v0zM765 636q4 -10 2 -21t-10 -19l-256 -256q-5 -6 -12 -8.5t-14 -2.5q-6 0 -13 2.5t-12 8.5l-256 256q-8 8 -10.5 19t2.5 21q4 10 13 16t20 6h147v256q0 15 10.5 26t25.5 11
h147q15 0 25.5 -11t10.5 -26v-256h146q12 0 21 -6t13 -16z" />
    <glyph glyph-name="uniF081" unicode="&#xf081;" 
d="M854 638q-18 -9 -38 -14t-42 -8q22 12 38 32.5t24 45.5q-20 -13 -43 -21.5t-48 -13.5q-18 20 -44.5 31.5t-57.5 11.5q-58 0 -98.5 -41t-40.5 -98q0 -8 0.5 -16.5t3.5 -16.5q-44 2 -85 13q-40 12 -77 31t-69 45t-58 58q-9 -15 -13.5 -33t-4.5 -38q0 -37 16 -68t45 -49
q-17 0 -34 5t-33 11v-2q0 -50 33.5 -89t80.5 -48q-9 -3 -16.5 -4.5t-18.5 -1.5q-6 0 -12.5 1t-13.5 1q14 -41 49.5 -69t81.5 -29q-35 -28 -80 -44t-94 -16q-9 0 -17 0.5t-16 1.5q46 -29 100.5 -46t114.5 -17q97 0 171 36q75 36 125.5 93.5t76.5 128.5t26 141v9.5v9.5
q19 18 36.5 37t31.5 40v0v0zM1024 767v-641q0 -79 -56.5 -135.5t-136.5 -56.5h-638q-80 1 -136.5 58t-56.5 137v638q0 80 56.5 136.5t136.5 56.5h641q78 0 134 -56.5t56 -136.5v0z" />
    <glyph glyph-name="uniF1E0" unicode="&#xf1e0;" horiz-adv-x="878" 
d="M695 366q76 0 129.5 -53.5t53.5 -129.5t-53.5 -129.5t-129.5 -53.5t-129.5 53.5t-53.5 129.5q0 5 0.5 10t0.5 9l-206 103q-24 -23 -56 -36t-68 -13q-76 0 -129.5 53.5t-53.5 129.5t53.5 129.5t129.5 53.5q36 0 68 -13.5t56 -35.5l206 102q0 5 -0.5 10t-0.5 10
q0 76 53.5 129.5t129.5 53.5t129.5 -53.5t53.5 -129.5t-53.5 -129.5t-129.5 -53.5q-36 0 -68 13t-57 36l-205 -103q0 -4 0.5 -9t0.5 -10t-0.5 -10t-0.5 -10l205 -102q25 22 57 35.5t68 13.5z" />
  </font>
</defs>
</svg>
