<svg 
 xmlns="http://www.w3.org/2000/svg"
 xmlns:xlink="http://www.w3.org/1999/xlink"
 width="400px" height="71px">
<path fill-rule="evenodd"  fill="rgb(255, 255, 255)"
 d="M399.102,47.239 C398.767,47.706 398.252,48.156 397.552,48.589 C396.852,49.023 396.117,49.406 395.352,49.739 C394.584,50.073 394.067,50.306 393.802,50.439 C392.867,50.973 391.934,51.439 391.002,51.839 C390.067,52.239 389.134,52.639 388.202,53.039 C386.934,53.573 385.534,54.139 384.002,54.739 C382.467,55.339 381.034,55.339 379.702,54.739 C378.967,54.406 378.502,53.973 378.302,53.439 C378.102,52.906 378.052,52.356 378.152,51.789 C378.252,51.223 378.484,50.639 378.852,50.039 C379.217,49.439 379.602,48.939 380.002,48.539 C380.402,48.073 380.884,47.573 381.452,47.039 C382.017,46.506 382.552,45.939 383.052,45.339 C383.552,44.739 383.952,44.123 384.252,43.489 C384.552,42.856 384.634,42.173 384.502,41.439 C383.834,41.106 383.017,41.139 382.052,41.539 C381.084,41.939 380.334,42.273 379.802,42.539 C377.802,43.273 375.867,44.239 374.002,45.439 C372.134,46.639 370.334,47.839 368.602,49.039 C368.334,49.239 367.867,49.623 367.202,50.189 C366.534,50.756 365.834,51.273 365.102,51.739 C364.367,52.206 363.652,52.506 362.952,52.639 C362.252,52.773 361.767,52.473 361.502,51.739 C361.367,51.406 361.402,51.006 361.602,50.539 C361.802,50.073 362.067,49.589 362.402,49.089 C362.734,48.589 363.067,48.106 363.402,47.639 C363.734,47.173 363.967,46.773 364.102,46.439 C364.234,46.106 364.417,45.639 364.652,45.039 C364.884,44.439 365.067,43.839 365.202,43.239 C363.667,43.706 362.234,44.323 360.902,45.089 C359.567,45.856 358.284,46.689 357.052,47.589 C355.817,48.489 354.602,49.456 353.402,50.489 C352.202,51.523 350.967,52.506 349.702,53.439 C349.367,53.773 348.967,54.039 348.502,54.239 C348.034,54.439 347.567,54.406 347.102,54.139 C346.502,53.873 346.167,53.556 346.102,53.189 C346.034,52.823 346.102,52.456 346.302,52.089 C346.502,51.723 346.767,51.373 347.102,51.039 C347.434,50.706 347.702,50.439 347.902,50.239 C349.767,47.839 351.267,45.173 352.402,42.239 C350.934,42.573 349.517,43.023 348.152,43.589 C346.784,44.156 345.467,44.706 344.202,45.239 C343.267,45.706 342.334,46.156 341.402,46.589 C340.676,46.926 339.952,47.314 339.227,47.750 C339.217,47.763 339.213,47.777 339.202,47.789 C338.867,48.156 338.417,48.456 337.852,48.689 C337.285,48.923 336.702,49.139 336.102,49.339 C335.502,49.539 335.102,49.673 334.902,49.739 C333.902,50.073 332.852,50.339 331.752,50.539 C330.652,50.739 329.567,50.839 328.502,50.839 C327.435,50.839 326.402,50.689 325.402,50.389 C324.402,50.089 323.535,49.573 322.802,48.839 L320.602,51.139 C319.802,51.873 318.902,52.606 317.902,53.339 C316.902,54.073 315.852,54.689 314.752,55.189 C313.652,55.689 312.502,56.004 311.302,56.139 C310.102,56.271 308.967,56.104 307.902,55.639 C306.567,55.039 305.785,54.256 305.552,53.289 C305.317,52.323 305.402,51.306 305.802,50.239 C306.202,49.173 306.767,48.139 307.502,47.139 C308.235,46.139 308.935,45.306 309.602,44.639 L311.502,42.739 C309.967,43.273 308.467,43.873 307.002,44.539 C305.535,45.206 304.067,45.906 302.602,46.639 C302.335,46.773 302.002,46.956 301.602,47.189 C301.202,47.423 300.802,47.639 300.402,47.839 C300.106,47.987 299.821,48.098 299.543,48.191 C299.287,48.380 298.993,48.548 298.652,48.689 C298.085,48.923 297.502,49.139 296.902,49.339 C296.302,49.539 295.902,49.673 295.702,49.739 C294.702,50.073 293.652,50.339 292.552,50.539 C291.452,50.739 290.368,50.839 289.302,50.839 C288.235,50.839 287.202,50.689 286.202,50.389 C285.202,50.089 284.335,49.573 283.602,48.839 L281.402,51.139 C280.602,51.873 279.702,52.606 278.702,53.339 C277.702,54.073 276.652,54.689 275.552,55.189 C274.452,55.689 273.302,56.004 272.102,56.139 C270.902,56.271 269.768,56.104 268.702,55.639 C267.368,55.039 266.585,54.256 266.352,53.289 C266.118,52.323 266.202,51.306 266.602,50.239 C267.002,49.173 267.568,48.139 268.302,47.139 C269.035,46.139 269.735,45.306 270.402,44.639 L272.302,42.739 C270.768,43.273 269.268,43.873 267.802,44.539 C266.335,45.206 264.868,45.906 263.402,46.639 C263.135,46.773 262.802,46.956 262.402,47.189 C262.002,47.423 261.602,47.639 261.202,47.839 C260.802,48.039 260.418,48.189 260.052,48.289 C259.958,48.314 259.868,48.329 259.781,48.335 C259.673,48.404 259.567,48.476 259.453,48.539 C259.086,48.739 258.703,48.906 258.303,49.039 C257.903,49.173 257.603,49.273 257.403,49.339 L253.203,51.239 C252.468,51.639 251.553,52.139 250.453,52.739 C249.353,53.339 248.236,53.839 247.103,54.239 C245.968,54.639 244.868,54.839 243.803,54.839 C242.736,54.839 241.903,54.406 241.303,53.539 C240.968,53.073 240.768,52.556 240.703,51.989 C240.636,51.423 240.653,50.856 240.753,50.289 C240.853,49.723 240.986,49.156 241.153,48.589 C241.318,48.023 241.468,47.473 241.603,46.939 L242.403,43.639 C242.068,43.706 241.386,43.873 240.353,44.139 C239.318,44.406 238.203,44.589 237.003,44.689 C235.803,44.789 234.653,44.773 233.553,44.639 C232.453,44.506 231.636,44.073 231.103,43.339 C229.968,43.939 229.036,44.439 228.303,44.839 C227.568,45.239 226.818,45.673 226.053,46.139 C225.286,46.606 224.668,46.973 224.203,47.239 C223.803,47.373 223.336,47.623 222.803,47.989 C222.268,48.356 221.803,48.406 221.403,48.139 C221.003,47.873 220.803,47.506 220.803,47.039 C220.803,46.573 221.003,46.239 221.403,46.039 C222.803,45.306 224.186,44.573 225.553,43.839 C226.918,43.106 228.403,42.273 230.003,41.339 C229.868,40.073 230.253,38.873 231.153,37.739 C232.053,36.606 233.203,36.073 234.603,36.139 C235.536,36.273 236.136,36.739 236.403,37.539 C236.668,38.339 236.536,39.106 236.003,39.839 C235.468,40.639 234.768,41.306 233.903,41.839 C234.368,42.106 234.936,42.239 235.603,42.239 C237.003,42.373 238.468,42.123 240.003,41.489 C241.536,40.856 242.903,40.173 244.103,39.439 C245.303,39.039 246.068,39.173 246.403,39.839 C246.736,40.506 246.603,41.306 246.003,42.239 C245.668,42.773 245.286,43.456 244.853,44.289 C244.418,45.123 244.053,45.973 243.753,46.839 C243.453,47.706 243.286,48.539 243.253,49.339 C243.218,50.139 243.468,50.773 244.003,51.239 C244.336,51.639 245.218,51.639 246.653,51.239 C248.086,50.839 250.003,50.173 252.403,49.239 C253.203,48.906 254.018,48.523 254.853,48.089 C255.686,47.656 256.536,47.239 257.403,46.839 C257.603,46.773 257.903,46.623 258.303,46.389 C258.703,46.156 259.086,45.989 259.453,45.889 C259.516,45.871 259.577,45.861 259.639,45.850 L269.602,41.539 C270.935,41.006 272.318,40.539 273.752,40.139 C275.185,39.739 276.568,39.339 277.902,38.939 C278.768,38.473 279.735,38.106 280.802,37.839 C281.868,37.573 282.835,37.706 283.702,38.239 C284.235,38.639 284.435,39.173 284.302,39.839 C284.768,39.773 285.235,39.906 285.702,40.239 C286.568,41.106 286.868,42.139 286.602,43.339 C286.335,44.539 285.835,45.706 285.102,46.839 C285.368,47.173 285.768,47.506 286.302,47.839 C287.368,48.506 288.535,48.806 289.802,48.739 C291.068,48.673 292.268,48.473 293.402,48.139 C293.735,48.073 294.235,47.873 294.902,47.539 C295.568,47.206 296.252,46.889 296.952,46.589 C297.409,46.393 297.842,46.244 298.256,46.134 C298.304,46.102 298.348,46.066 298.402,46.039 L308.802,41.539 C310.135,41.006 311.517,40.539 312.952,40.139 C314.385,39.739 315.767,39.339 317.102,38.939 C317.967,38.473 318.935,38.106 320.002,37.839 C321.067,37.573 322.035,37.706 322.902,38.239 C323.435,38.639 323.635,39.173 323.502,39.839 C323.967,39.773 324.435,39.906 324.902,40.239 C325.767,41.106 326.067,42.139 325.802,43.339 C325.535,44.539 325.035,45.706 324.302,46.839 C324.567,47.173 324.967,47.506 325.502,47.839 C326.567,48.506 327.735,48.806 329.002,48.739 C330.267,48.673 331.467,48.473 332.602,48.139 C332.935,48.073 333.435,47.873 334.102,47.539 C334.767,47.206 335.452,46.889 336.152,46.589 C336.578,46.406 336.983,46.265 337.372,46.157 C337.383,46.151 337.391,46.144 337.402,46.139 C338.934,45.273 340.467,44.473 342.002,43.739 C343.534,43.006 345.067,42.273 346.602,41.539 C347.067,41.339 347.717,41.023 348.552,40.589 C349.384,40.156 350.267,39.739 351.202,39.339 C352.134,38.939 353.034,38.639 353.902,38.439 C354.767,38.239 355.467,38.273 356.002,38.539 C356.602,38.939 356.884,39.406 356.852,39.939 C356.817,40.473 356.617,41.039 356.252,41.639 C355.884,42.239 355.467,42.806 355.002,43.339 C354.534,43.873 354.202,44.306 354.002,44.639 C353.667,45.173 353.352,45.739 353.052,46.339 C352.752,46.939 352.434,47.539 352.102,48.139 C353.634,46.939 354.984,45.889 356.152,44.989 C357.317,44.089 358.367,43.306 359.302,42.639 C360.234,41.973 361.117,41.406 361.952,40.939 C362.784,40.473 363.634,40.073 364.502,39.739 C365.502,39.339 366.467,39.323 367.402,39.689 C368.334,40.056 368.667,40.906 368.402,42.239 C368.267,43.173 368.034,44.056 367.702,44.889 C367.367,45.723 366.967,46.539 366.502,47.339 C367.967,46.473 369.434,45.589 370.902,44.689 C372.367,43.789 373.867,42.873 375.402,41.939 C376.667,41.139 378.017,40.306 379.452,39.439 C380.884,38.573 382.367,38.039 383.902,37.839 C384.902,37.706 385.702,37.823 386.302,38.189 C386.902,38.556 387.302,39.056 387.502,39.689 C387.702,40.323 387.734,41.023 387.602,41.789 C387.467,42.556 387.202,43.273 386.802,43.939 C385.934,45.339 385.067,46.656 384.202,47.889 C383.334,49.123 382.534,50.406 381.802,51.739 C382.867,51.939 384.117,51.806 385.552,51.339 C386.984,50.873 388.134,50.439 389.002,50.039 C389.934,49.706 390.802,49.356 391.602,48.989 C392.402,48.623 393.234,48.239 394.102,47.839 C394.367,47.706 394.684,47.506 395.052,47.239 C395.417,46.973 395.817,46.723 396.252,46.489 C396.684,46.256 397.102,46.089 397.502,45.989 C397.902,45.889 398.267,45.906 398.602,46.039 C399.267,46.373 399.434,46.773 399.102,47.239 ZM277.052,42.539 C275.552,43.206 274.202,44.039 273.002,45.039 C272.735,45.306 272.252,45.806 271.552,46.539 C270.852,47.273 270.235,48.039 269.702,48.839 C269.167,49.639 268.852,50.389 268.752,51.089 C268.652,51.789 269.068,52.206 270.002,52.339 C271.735,52.606 273.385,52.539 274.952,52.139 C276.518,51.739 277.935,50.973 279.202,49.839 C279.735,49.306 280.235,48.806 280.702,48.339 C281.167,47.873 281.568,47.339 281.902,46.739 C281.568,45.873 281.385,44.939 281.352,43.939 C281.318,42.939 281.568,42.073 282.102,41.339 C280.235,41.473 278.552,41.873 277.052,42.539 ZM316.252,42.539 C314.752,43.206 313.402,44.039 312.202,45.039 C311.935,45.306 311.452,45.806 310.752,46.539 C310.052,47.273 309.435,48.039 308.902,48.839 C308.367,49.639 308.052,50.389 307.952,51.089 C307.852,51.789 308.267,52.206 309.202,52.339 C310.935,52.606 312.585,52.539 314.152,52.139 C315.717,51.739 317.135,50.973 318.402,49.839 C318.935,49.306 319.435,48.806 319.902,48.339 C320.367,47.873 320.767,47.339 321.102,46.739 C320.767,45.873 320.585,44.939 320.552,43.939 C320.517,42.939 320.767,42.073 321.302,41.339 C319.435,41.473 317.752,41.873 316.252,42.539 ZM197.205,49.039 C195.605,49.773 193.988,50.556 192.355,51.389 C190.720,52.223 189.105,53.073 187.505,53.939 C185.570,54.871 183.720,55.704 181.955,56.439 C180.188,57.171 178.370,57.539 176.505,57.539 C175.170,57.539 173.988,57.071 172.955,56.139 C171.920,55.204 171.405,54.139 171.405,52.939 C171.338,52.339 171.470,51.856 171.805,51.489 C172.138,51.123 172.538,50.889 173.005,50.789 C173.470,50.689 173.888,50.773 174.255,51.039 C174.620,51.306 174.838,51.739 174.905,52.339 C175.038,53.673 175.620,54.456 176.655,54.689 C177.688,54.921 178.905,54.871 180.305,54.539 C181.238,54.206 182.088,53.789 182.855,53.289 C183.620,52.789 184.170,52.306 184.505,51.839 C185.370,50.906 185.605,50.173 185.205,49.639 C184.805,49.106 184.120,48.673 183.155,48.339 C182.188,48.006 181.170,47.723 180.105,47.489 C179.038,47.256 178.305,46.973 177.905,46.639 C177.305,46.106 176.955,45.573 176.855,45.039 C176.755,44.506 176.770,43.973 176.905,43.439 C175.905,43.839 174.920,44.256 173.955,44.689 C172.988,45.123 172.105,45.506 171.305,45.839 C170.705,46.173 169.988,46.656 169.155,47.289 C168.590,47.718 168.065,47.998 167.578,48.136 C167.459,48.232 167.324,48.319 167.155,48.389 C166.588,48.623 166.071,48.839 165.605,49.039 C164.005,49.773 162.388,50.556 160.755,51.389 C159.121,52.223 157.505,53.073 155.905,53.939 C153.971,54.871 152.121,55.704 150.355,56.439 C148.588,57.171 146.771,57.539 144.905,57.539 C143.571,57.539 142.388,57.071 141.355,56.139 C140.321,55.204 139.805,54.139 139.805,52.939 C139.738,52.339 139.871,51.856 140.205,51.489 C140.538,51.123 140.938,50.889 141.405,50.789 C141.871,50.689 142.288,50.773 142.655,51.039 C143.021,51.306 143.238,51.739 143.305,52.339 C143.438,53.673 144.021,54.456 145.055,54.689 C146.088,54.921 147.305,54.871 148.705,54.539 C149.638,54.206 150.488,53.789 151.255,53.289 C152.021,52.789 152.571,52.306 152.905,51.839 C153.771,50.906 154.005,50.173 153.605,49.639 C153.205,49.106 152.521,48.673 151.555,48.339 C150.588,48.006 149.571,47.723 148.505,47.489 C147.438,47.256 146.705,46.973 146.305,46.639 C145.705,46.106 145.355,45.573 145.255,45.039 C145.155,44.506 145.171,43.973 145.305,43.439 C144.305,43.839 143.321,44.256 142.355,44.689 C141.388,45.123 140.505,45.506 139.705,45.839 C139.105,46.173 138.388,46.656 137.555,47.289 C137.185,47.571 136.831,47.786 136.494,47.942 C136.200,48.260 135.839,48.494 135.406,48.639 C134.806,48.839 134.271,49.039 133.806,49.239 L128.806,51.439 C125.739,52.639 122.706,53.639 119.706,54.439 C118.371,54.704 117.021,54.789 115.656,54.689 C114.289,54.589 113.021,54.289 111.856,53.789 C110.689,53.289 109.639,52.573 108.706,51.639 C107.771,50.706 107.106,49.506 106.706,48.039 C106.571,47.506 106.456,46.973 106.356,46.439 C106.256,45.906 106.271,45.406 106.406,44.939 C105.671,45.273 104.956,45.656 104.256,46.089 C103.556,46.523 102.939,46.906 102.406,47.239 C102.071,47.373 101.639,47.623 101.106,47.989 C100.769,48.220 100.434,48.312 100.098,48.265 C99.956,48.361 99.811,48.454 99.657,48.539 C99.289,48.739 98.907,48.906 98.507,49.039 C98.107,49.173 97.807,49.273 97.607,49.339 L93.407,51.239 C92.672,51.639 91.757,52.139 90.657,52.739 C89.557,53.339 88.439,53.839 87.307,54.239 C86.172,54.639 85.072,54.839 84.007,54.839 C82.939,54.839 82.107,54.406 81.507,53.539 C81.172,53.073 80.972,52.556 80.907,51.989 C80.839,51.423 80.857,50.856 80.957,50.289 C81.057,49.723 81.189,49.156 81.357,48.589 C81.522,48.023 81.672,47.473 81.807,46.939 L82.607,43.639 C82.272,43.706 81.589,43.873 80.557,44.139 C79.522,44.406 78.407,44.589 77.207,44.689 C76.007,44.789 74.857,44.773 73.757,44.639 C72.657,44.506 71.839,44.073 71.307,43.339 C70.172,43.939 69.239,44.439 68.507,44.839 C67.772,45.239 67.022,45.673 66.257,46.139 C65.489,46.606 64.872,46.973 64.407,47.239 C64.007,47.373 63.539,47.623 63.007,47.989 C62.472,48.356 62.007,48.406 61.607,48.139 C61.207,47.873 61.007,47.506 61.007,47.039 C61.007,46.573 61.207,46.239 61.607,46.039 C63.007,45.306 64.389,44.573 65.757,43.839 C67.122,43.106 68.607,42.273 70.207,41.339 C70.072,40.073 70.457,38.873 71.357,37.739 C72.257,36.606 73.407,36.073 74.807,36.139 C75.739,36.273 76.339,36.739 76.607,37.539 C76.872,38.339 76.739,39.106 76.207,39.839 C75.672,40.639 74.972,41.306 74.107,41.839 C74.572,42.106 75.139,42.239 75.807,42.239 C77.207,42.373 78.672,42.123 80.207,41.489 C81.739,40.856 83.107,40.173 84.307,39.439 C85.507,39.039 86.272,39.173 86.607,39.839 C86.939,40.506 86.807,41.306 86.207,42.239 C85.872,42.773 85.489,43.456 85.057,44.289 C84.622,45.123 84.257,45.973 83.957,46.839 C83.657,47.706 83.489,48.539 83.457,49.339 C83.422,50.139 83.672,50.773 84.207,51.239 C84.539,51.639 85.422,51.639 86.857,51.239 C88.289,50.839 90.207,50.173 92.607,49.239 C93.407,48.906 94.222,48.523 95.057,48.089 C95.889,47.656 96.739,47.239 97.607,46.839 C97.807,46.773 98.107,46.623 98.507,46.389 C98.907,46.156 99.289,45.989 99.657,45.889 C99.784,45.854 99.906,45.836 100.026,45.825 C101.098,45.281 102.206,44.688 103.356,44.039 C104.656,43.306 105.971,42.673 107.306,42.139 C108.171,40.606 109.406,39.356 111.006,38.389 C112.606,37.423 114.306,36.773 116.106,36.439 C117.039,36.306 118.121,36.306 119.356,36.439 C120.589,36.573 121.539,37.073 122.206,37.939 C122.671,38.473 122.789,39.039 122.556,39.639 C122.321,40.239 121.921,40.806 121.356,41.339 C120.789,41.873 120.156,42.356 119.456,42.789 C118.756,43.223 118.239,43.539 117.906,43.739 C116.706,44.473 115.389,45.023 113.956,45.389 C112.521,45.756 111.071,45.873 109.606,45.739 L109.206,45.739 C109.471,47.206 110.071,48.339 111.006,49.139 C111.939,49.939 113.039,50.523 114.306,50.889 C115.571,51.256 116.889,51.406 118.256,51.339 C119.621,51.273 120.871,51.139 122.006,50.939 C123.606,50.606 125.171,50.189 126.706,49.689 C128.239,49.189 129.739,48.606 131.206,47.939 C131.871,47.606 132.556,47.289 133.256,46.989 C133.604,46.839 133.940,46.686 134.263,46.529 C134.369,46.366 134.515,46.235 134.705,46.139 C135.171,45.873 136.021,45.389 137.255,44.689 C138.488,43.989 139.855,43.273 141.355,42.539 C142.855,41.806 144.371,41.123 145.905,40.489 C147.438,39.856 148.771,39.506 149.905,39.439 C150.305,39.306 150.721,39.323 151.155,39.489 C151.588,39.656 151.905,39.873 152.105,40.139 C152.505,40.806 152.538,41.323 152.205,41.689 C151.871,42.056 151.438,42.373 150.905,42.639 C150.371,42.906 149.788,43.123 149.155,43.289 C148.521,43.456 148.105,43.673 147.905,43.939 C147.571,44.339 147.655,44.706 148.155,45.039 C148.655,45.373 149.271,45.639 150.005,45.839 C150.738,46.039 151.471,46.223 152.205,46.389 C152.938,46.556 153.405,46.706 153.605,46.839 C154.938,47.573 155.721,48.356 155.955,49.189 C156.188,50.023 156.038,50.873 155.505,51.739 L158.205,50.339 L166.205,46.139 C166.336,46.064 166.462,46.014 166.585,45.979 C167.080,45.697 167.826,45.272 168.855,44.689 C170.088,43.989 171.455,43.273 172.955,42.539 C174.455,41.806 175.970,41.123 177.505,40.489 C179.038,39.856 180.370,39.506 181.505,39.439 C181.905,39.306 182.320,39.323 182.755,39.489 C183.188,39.656 183.505,39.873 183.705,40.139 C184.105,40.806 184.138,41.323 183.805,41.689 C183.470,42.056 183.038,42.373 182.505,42.639 C181.970,42.906 181.388,43.123 180.755,43.289 C180.120,43.456 179.705,43.673 179.505,43.939 C179.170,44.339 179.255,44.706 179.755,45.039 C180.255,45.373 180.870,45.639 181.605,45.839 C182.338,46.039 183.070,46.223 183.805,46.389 C184.538,46.556 185.005,46.706 185.205,46.839 C186.538,47.573 187.320,48.356 187.555,49.189 C187.788,50.023 187.638,50.873 187.105,51.739 L189.805,50.339 L197.805,46.139 C198.270,45.873 198.688,45.856 199.055,46.089 C199.420,46.323 199.605,46.706 199.605,47.239 C199.605,47.773 199.320,48.156 198.755,48.389 C198.188,48.623 197.670,48.839 197.205,49.039 ZM114.456,42.039 C115.956,41.306 117.271,40.373 118.406,39.239 C117.471,38.906 116.556,38.806 115.656,38.939 C114.756,39.073 113.921,39.339 113.156,39.739 C112.389,40.139 111.706,40.656 111.106,41.289 C110.506,41.923 110.071,42.573 109.806,43.239 C111.406,43.173 112.956,42.773 114.456,42.039 ZM65.657,31.389 C64.423,32.756 63.073,34.023 61.607,35.189 C60.140,36.356 58.740,37.373 57.407,38.239 C51.140,42.373 44.373,45.706 37.107,48.239 C29.840,50.773 22.507,52.706 15.107,54.039 L13.307,54.439 L12.207,56.339 L6.707,66.639 C6.373,67.171 6.023,67.854 5.657,68.689 C5.290,69.521 4.707,70.004 3.907,70.139 C3.173,70.204 2.607,69.921 2.207,69.289 C1.807,68.654 1.773,68.039 2.107,67.439 C3.240,65.304 4.473,63.204 5.807,61.139 C7.140,59.071 8.473,56.971 9.807,54.839 C8.807,55.039 7.807,55.189 6.807,55.289 C5.807,55.389 4.840,55.504 3.907,55.639 C3.240,55.704 2.540,55.754 1.807,55.789 C1.073,55.821 0.540,55.439 0.207,54.639 C-0.060,54.106 0.007,53.556 0.407,52.989 C0.807,52.423 1.307,52.173 1.907,52.239 C3.507,52.306 5.140,52.289 6.807,52.189 C8.473,52.089 10.107,51.939 11.707,51.739 L13.907,48.239 C16.040,44.773 18.157,41.323 20.257,37.889 C22.357,34.456 24.540,31.039 26.807,27.639 C28.273,25.506 29.773,23.373 31.307,21.239 C32.840,19.106 34.473,17.006 36.207,14.939 C35.473,15.073 34.757,15.239 34.057,15.439 C33.357,15.639 32.673,15.873 32.007,16.139 C27.207,17.673 22.673,19.739 18.407,22.339 C18.073,22.539 17.673,22.856 17.207,23.289 C16.740,23.723 16.257,24.139 15.757,24.539 C15.257,24.939 14.740,25.289 14.207,25.589 C13.673,25.889 13.207,25.973 12.807,25.839 C12.007,25.639 11.540,25.156 11.407,24.389 C11.273,23.623 11.540,23.039 12.207,22.639 C15.340,20.506 18.690,18.723 22.257,17.289 C25.823,15.856 29.407,14.573 33.007,13.439 C33.940,13.106 34.890,12.806 35.857,12.539 C36.823,12.273 37.773,12.039 38.707,11.839 L41.007,9.239 C42.207,7.973 43.457,6.789 44.757,5.689 C46.057,4.589 47.473,3.573 49.007,2.639 C49.407,2.439 49.973,2.139 50.707,1.739 C51.440,1.339 52.207,1.006 53.007,0.739 C53.807,0.473 54.573,0.339 55.307,0.339 C56.040,0.339 56.607,0.573 57.007,1.039 C57.540,1.573 57.640,2.206 57.307,2.939 C56.973,3.673 56.407,4.039 55.607,4.039 C53.273,3.973 51.040,4.643 48.907,6.050 C46.773,7.456 44.773,9.064 42.907,10.873 C45.040,10.461 47.157,10.151 49.257,9.946 C51.357,9.742 53.473,9.706 55.607,9.839 C57.340,9.973 59.057,10.306 60.757,10.839 C62.457,11.373 63.990,12.123 65.357,13.089 C66.723,14.056 67.823,15.273 68.657,16.739 C69.490,18.206 69.907,19.906 69.907,21.839 C69.907,23.639 69.507,25.339 68.707,26.939 C67.907,28.539 66.890,30.023 65.657,31.389 ZM66.007,19.289 C65.540,17.923 64.473,16.673 62.807,15.539 C60.873,14.206 58.657,13.389 56.157,13.089 C53.657,12.789 51.240,12.706 48.907,12.839 C47.373,12.973 45.890,13.123 44.457,13.289 C43.023,13.456 41.540,13.706 40.007,14.039 L38.007,16.439 C35.473,19.439 33.107,22.523 30.907,25.689 C28.707,28.856 26.540,32.106 24.407,35.439 C22.740,38.106 21.123,40.773 19.557,43.439 C17.990,46.106 16.407,48.806 14.807,51.539 C18.340,51.073 21.873,50.373 25.407,49.439 C30.407,48.239 35.307,46.673 40.107,44.739 C44.907,42.806 49.440,40.373 53.707,37.439 C54.707,36.773 55.857,35.939 57.157,34.939 C58.457,33.939 59.707,32.823 60.907,31.589 C62.107,30.356 63.207,29.039 64.207,27.639 C65.207,26.239 65.873,24.839 66.207,23.439 C66.540,22.039 66.473,20.656 66.007,19.289 Z"/>
</svg>